<svg width="193" height="70" viewBox="0 0 193 70" fill="none" xmlns="http://www.w3.org/2000/svg">
<path fill-rule="evenodd" clip-rule="evenodd" d="M110.349 27.115C112.676 27.115 114.11 27.935 114.91 28.625L115.138 28.824L115.275 28.558C115.638 27.875 116.361 27.501 117.3 27.501H119.604L119.584 43.405C119.584 49.468 114.66 51.624 110.442 51.624C108.394 51.624 106.127 51.072 104.387 50.151L104.041 49.968L104.597 48.548L104.99 47.578C105.417 46.526 106.031 46.265 107.083 46.581C107.888 46.872 109.091 47.194 110.413 47.194C113.133 47.194 114.636 45.915 114.636 43.601V43.119L114.253 43.405C113.263 44.152 112.019 44.518 110.442 44.518C105.825 44.518 102.6 40.913 102.6 35.752C102.6 30.587 105.718 27.115 110.349 27.115ZM137.559 27.21C140.114 27.21 143.916 28.293 143.916 31.275V33.535L141.324 33.531C141.107 33.531 140.004 33.467 139.639 32.254L139.617 32.165C139.457 31.63 138.447 31.311 137.559 31.311C134.821 31.311 132.909 33.327 132.909 36.207C132.909 39.544 135.374 41.041 137.818 41.041C140.335 41.041 142.281 39.15 142.52 38.906L142.544 38.881L142.814 38.594L144.867 41.991L144.731 42.159C144.707 42.188 142.154 45.269 137.458 45.269C132.046 45.269 128.123 41.475 128.123 36.242C128.123 31.012 132.088 27.21 137.559 27.21ZM28.742 27.193C34.015 27.193 37.842 30.97 37.842 36.173C37.842 41.375 34.015 45.153 28.742 45.153C23.488 45.153 19.676 41.375 19.676 36.173C19.676 30.97 23.488 27.193 28.742 27.193ZM48.195 27.193C53.462 27.193 57.297 30.97 57.297 36.173C57.297 41.375 53.462 45.153 48.195 45.153C42.936 45.153 39.124 41.375 39.124 36.173C39.124 30.97 42.936 27.193 48.194 27.193H48.195ZM154.355 27.193C159.621 27.193 163.455 30.97 163.455 36.173C163.455 41.375 159.621 45.153 154.355 45.153C149.097 45.153 145.285 41.375 145.285 36.173C145.285 30.97 149.097 27.193 154.355 27.193ZM124.425 39.313C126.017 39.313 127.311 40.605 127.311 42.2C127.311 43.792 126.017 45.085 124.424 45.085C122.837 45.085 121.547 43.792 121.547 42.2C121.547 40.605 122.837 39.312 124.424 39.312L124.425 39.313ZM79.003 27.547C80.759 27.547 81.609 28.407 81.609 30.179L81.599 44.877H81.589V44.883H80.429L79.262 44.887C79.231 44.887 79.204 44.883 79.172 44.883H76.667V40.953H76.669L76.655 27.547H79.004H79.003ZM61.42 20.878C62.79 20.878 64.06 21.155 64.06 23.19V33.362H64.855C65.451 33.362 65.849 33.215 66.045 32.927L69.529 27.547H75.157L70.52 34.425C70.283 34.774 70.036 35.075 69.796 35.328L69.628 35.488L69.788 35.656C70.036 35.914 70.271 36.24 70.475 36.623L72.363 40.189L75.208 44.889H71.385C69.945 44.889 69.181 44.647 68.411 43.242L65.661 38.059C65.483 37.752 65.096 37.686 64.528 37.686H64.06V44.888H59.075L59.069 20.879H61.419L61.42 20.878ZM94.683 27.153C98.737 27.153 100.879 29.47 100.879 33.853L100.887 44.882H98.529C96.729 44.882 95.896 44.04 95.896 42.245V34.693C95.896 32.588 95.293 31.773 93.746 31.773C91.825 31.773 90.286 32.937 89.736 34.81C89.528 35.428 89.427 36.106 89.427 36.889V44.882H84.475L84.461 27.54H86.695C88.047 27.54 88.945 28.101 89.21 29.12L89.318 29.534L89.621 29.23C90.527 28.28 92.146 27.153 94.683 27.153ZM185.578 27.209L185.81 27.213C189.481 27.303 191.346 29.537 191.346 33.852L191.341 44.877H189.115C187.367 44.877 186.589 44.099 186.589 42.353V34.639C186.589 32.428 186.049 31.604 184.594 31.604C182.581 31.604 181.284 33.407 180.902 35.168C180.715 35.792 180.636 36.418 180.636 37.253V44.877H175.872V34.639C175.872 32.721 175.244 31.729 173.959 31.607C171.873 31.409 170.63 33.39 170.179 35.233C170.013 35.924 169.929 36.587 169.929 37.253V44.877H165.2L165.22 27.605H167.301C168.599 27.605 169.457 28.133 169.717 29.095L169.899 29.762L170.368 29.254C171.086 28.494 172.628 27.21 174.931 27.21C177.127 27.21 178.705 28.058 179.622 29.727L179.903 30.235L180.262 29.781C181.537 28.171 183.525 27.211 185.58 27.211L185.578 27.209ZM4.68101 20.888H9.86101C14.401 20.888 17.333 23.325 17.333 27.098C17.333 29.564 16.093 30.991 15.353 31.626L14.717 32.169L15.446 32.579C17.215 33.572 18.266 35.526 18.266 37.814C18.266 42.058 15.011 44.8 9.96401 44.8L4.04101 44.801L4.03101 44.8H1.65401V23.38C1.66701 22.029 2.74601 20.935 4.09201 20.888H4.68101ZM28.742 31.395C26.258 31.395 24.534 33.362 24.534 36.174C24.534 38.984 26.258 40.954 28.742 40.954C31.275 40.954 32.984 39.03 32.984 36.174C32.984 33.362 31.24 31.394 28.742 31.394V31.395ZM48.195 31.395C45.712 31.395 43.984 33.362 43.984 36.174C43.984 38.984 45.712 40.954 48.194 40.954C50.728 40.954 52.437 39.03 52.437 36.174C52.437 33.362 50.687 31.394 48.195 31.394V31.395ZM154.355 31.395C151.872 31.395 150.142 33.362 150.142 36.174C150.142 38.984 151.872 40.954 154.354 40.954C156.887 40.954 158.599 39.03 158.599 36.174C158.599 33.362 156.847 31.394 154.354 31.394L154.355 31.395ZM10.295 34.253H7.54801C6.66501 34.377 6.26501 34.91 6.26501 35.939V40.75L10.296 40.755C12.291 40.754 13.528 39.538 13.528 37.488C13.528 35.488 12.258 34.253 10.296 34.253H10.295ZM111.059 31.475C107.896 31.475 107.649 34.65 107.649 35.623C107.649 37.831 108.613 40.189 111.319 40.189C112.874 40.189 114.728 39.426 114.728 35.786C114.728 31.927 112.633 31.476 111.059 31.476V31.475ZM9.82901 24.808H7.76601C6.73601 24.876 6.26501 25.402 6.26501 26.511V30.554H9.89301C11.932 30.554 12.658 28.981 12.658 27.633C12.658 25.866 11.598 24.808 9.82801 24.808H9.82901ZM78.937 20.126C80.53 20.126 81.825 21.416 81.825 23.012C81.825 24.604 80.53 25.895 78.937 25.895C77.348 25.895 76.059 24.604 76.059 23.012C76.059 21.417 77.349 20.126 78.937 20.126Z" fill="#222222"/>
</svg>
