<svg width="170" height="50" viewBox="0 0 170 50" fill="none" xmlns="http://www.w3.org/2000/svg">
<path d="M163.053 50H6.273C2.817 50 0 47.182 0 43.75V6.25C0 2.805 2.816 0 6.274 0H163.054C166.508 0 169.327 2.805 169.327 6.25V43.75C169.327 47.182 166.508 50 163.053 50Z" fill="black"/>
<path fill-rule="evenodd" clip-rule="evenodd" d="M163.053 1C165.953 1 168.327 3.36 168.327 6.25V43.75C168.327 46.64 165.969 49 163.053 49H6.273C3.374 49 1 46.64 1 43.75V6.25C1 3.36 3.358 1 6.274 1H163.054H163.053ZM163.053 0H6.273C2.817 0 0 2.818 0 6.25V43.75C0 47.195 2.816 50 6.274 50H163.054C166.508 50 169.327 47.195 169.327 43.75V6.25C169.327 2.818 166.508 0 163.053 0Z" fill="#A6A6A6"/>
<path d="M89.202 16.54C88.072 16.54 87.118 16.144 86.364 15.365C85.617 14.607 85.199 13.563 85.218 12.497C85.218 11.359 85.604 10.396 86.364 9.63197C87.115 8.85197 88.068 8.45697 89.199 8.45697C90.317 8.45697 91.271 8.85297 92.037 9.63197C92.797 10.421 93.183 11.384 93.183 12.497C93.171 13.637 92.784 14.601 92.037 15.362C91.287 16.147 90.333 16.54 89.202 16.54ZM55.557 16.54C54.451 16.54 53.491 16.15 52.707 15.38C51.927 14.613 51.532 13.644 51.532 12.5C51.532 11.356 51.928 10.387 52.706 9.61997C53.476 8.84997 54.436 8.45997 55.556 8.45997C56.105 8.45997 56.638 8.56997 57.148 8.78997C57.65 9.00597 58.058 9.29897 58.36 9.65697L58.435 9.74697L57.591 10.577L57.504 10.474C57.027 9.90597 56.388 9.62897 55.544 9.62897C54.79 9.62897 54.134 9.89697 53.591 10.427C53.046 10.96 52.769 11.658 52.769 12.503C52.769 13.348 53.046 14.046 53.591 14.579C54.133 15.109 54.791 15.377 55.544 15.377C56.348 15.377 57.024 15.109 57.55 14.579C57.862 14.267 58.055 13.831 58.123 13.279H55.416V12.113H59.286L59.301 12.219C59.329 12.416 59.357 12.619 59.357 12.805C59.357 13.881 59.033 14.751 58.391 15.393C57.662 16.153 56.709 16.54 55.557 16.54ZM100.292 16.375H99.099L95.445 10.524L95.475 11.577V16.372H94.283V8.62497H95.644L95.681 8.68497L99.117 14.195L99.087 13.145V8.62497H100.292V16.375ZM80.237 16.375H79.028V9.78997H76.932V8.62497H82.33V9.79097H80.234V16.375H80.237ZM75.947 16.375H74.742V8.62497H75.948V16.375H75.947ZM69.172 16.375H67.967V9.78997H65.871V8.62497H71.269V9.79097H69.172V16.375ZM65.107 16.362H60.485V8.62497H65.107V9.79097H61.693V11.917H64.774V13.07H61.694V15.196H65.107V16.362ZM87.249 14.564C87.788 15.103 88.442 15.374 89.202 15.374C89.984 15.374 90.622 15.109 91.155 14.564C91.685 14.034 91.953 13.339 91.953 12.5C91.953 11.661 91.685 10.963 91.158 10.436C90.619 9.89697 89.962 9.62597 89.205 9.62597C88.423 9.62597 87.785 9.89097 87.255 10.436C86.725 10.966 86.458 11.661 86.458 12.5C86.458 13.339 86.723 14.037 87.249 14.564Z" fill="white"/>
<path fill-rule="evenodd" clip-rule="evenodd" d="M85.106 27.195C82.162 27.195 79.776 29.43 79.776 32.512C79.776 35.567 82.178 37.83 85.106 37.83C88.05 37.83 90.436 35.58 90.436 32.512C90.436 29.43 88.05 27.195 85.106 27.195ZM85.106 35.723C83.496 35.723 82.109 34.389 82.109 32.5C82.109 30.583 83.499 29.277 85.106 29.277C86.716 29.277 88.103 30.583 88.103 32.5C88.106 34.401 86.716 35.723 85.106 35.723ZM73.477 27.195C70.534 27.195 68.147 29.43 68.147 32.512C68.147 35.567 70.549 37.83 73.477 37.83C76.421 37.83 78.807 35.58 78.807 32.512C78.807 29.43 76.418 27.195 73.477 27.195ZM73.477 35.723C71.867 35.723 70.481 34.389 70.481 32.5C70.481 30.583 71.871 29.277 73.477 29.277C75.087 29.277 76.474 30.583 76.474 32.5C76.474 34.401 75.088 35.723 73.477 35.723ZM59.64 28.82V31.07H65.039C64.874 32.333 64.456 33.265 63.818 33.904C63.027 34.696 61.805 35.556 59.653 35.556C56.335 35.556 53.741 32.876 53.741 29.556C53.741 26.236 56.335 23.555 59.653 23.555C61.444 23.555 62.749 24.262 63.718 25.166L65.313 23.57C63.967 22.28 62.176 21.292 59.665 21.292C55.115 21.292 51.295 25.001 51.295 29.542C51.295 34.097 55.111 37.794 59.665 37.794C62.123 37.794 63.967 36.99 65.425 35.474C66.911 33.988 67.381 31.89 67.381 30.197C67.381 29.671 67.341 29.197 67.257 28.795H59.637C59.64 28.792 59.64 28.82 59.64 28.82ZM116.238 30.571C115.792 29.378 114.446 27.183 111.686 27.183C108.951 27.183 106.678 29.337 106.678 32.501C106.678 35.487 108.927 37.819 111.951 37.819C114.381 37.819 115.795 36.332 116.378 35.459L114.574 34.249C113.976 35.139 113.144 35.721 111.964 35.721C110.771 35.721 109.936 35.179 109.381 34.109L116.487 31.164C116.487 31.167 116.237 30.571 116.237 30.571H116.238ZM108.992 32.348C108.936 30.294 110.587 29.25 111.767 29.25C112.699 29.25 113.475 29.708 113.739 30.375L108.992 32.348ZM103.22 37.5H105.553V21.877H103.22V37.5ZM99.388 28.376H99.304C98.778 27.749 97.778 27.182 96.501 27.182C93.85 27.182 91.408 29.517 91.408 32.516C91.408 35.502 93.838 37.809 96.501 37.809C97.762 37.809 98.778 37.239 99.304 36.599H99.388V37.363C99.388 39.393 98.304 40.486 96.557 40.486C95.127 40.486 94.239 39.458 93.877 38.597L91.85 39.445C92.432 40.848 93.987 42.585 96.554 42.585C99.289 42.585 101.606 40.973 101.606 37.042V27.5H99.401V28.376H99.388ZM96.709 35.723C95.099 35.723 93.753 34.377 93.753 32.516C93.753 30.639 95.099 29.28 96.709 29.28C98.304 29.28 99.541 30.655 99.541 32.516C99.557 34.376 98.307 35.723 96.709 35.723ZM127.162 21.877H121.583V37.5H123.916V31.584H127.166C129.747 31.584 132.286 29.71 132.286 26.736C132.286 23.762 129.756 21.876 127.162 21.876V21.877ZM127.231 29.401H123.913V24.04H127.231C128.978 24.04 129.966 25.483 129.966 26.72C129.966 27.946 128.966 29.401 127.231 29.401ZM141.638 27.166C139.943 27.166 138.195 27.918 137.473 29.554L139.541 30.414C139.987 29.554 140.803 29.261 141.666 29.261C142.874 29.261 144.096 29.984 144.123 31.275V31.44C143.706 31.203 142.79 30.842 141.693 30.842C139.46 30.842 137.196 32.064 137.196 34.355C137.196 36.453 139.027 37.799 141.068 37.799C142.634 37.799 143.498 37.092 144.036 36.272H144.12V37.482H146.37V31.496C146.37 28.709 144.3 27.166 141.638 27.166ZM141.345 35.723C140.582 35.723 139.513 35.349 139.513 34.389C139.513 33.179 140.846 32.721 141.983 32.721C143.011 32.721 143.497 32.943 144.108 33.248C143.94 34.651 142.756 35.711 141.345 35.723ZM154.575 27.5L151.895 34.277H151.811L149.036 27.5H146.525L150.69 36.973L148.316 42.238H150.746L157.154 27.5H154.574H154.575ZM133.573 37.5H135.906V21.877H133.573V37.5Z" fill="white"/>
<path fill-rule="evenodd" clip-rule="evenodd" d="M13.033 9.41697C12.672 9.80697 12.463 10.402 12.463 11.181V38.821C12.463 39.601 12.672 40.196 13.046 40.571L13.142 40.655L28.618 25.168V24.822L13.13 9.33197L13.033 9.41697Z" fill="url(#paint0_linear)"/>
<path fill-rule="evenodd" clip-rule="evenodd" d="M33.767 30.346L28.605 25.181V24.819L33.767 19.654L33.879 19.723L39.985 23.195C41.732 24.18 41.732 25.807 39.985 26.805L33.879 30.277L33.767 30.346Z" fill="url(#paint1_linear)"/>
<path fill-rule="evenodd" clip-rule="evenodd" d="M33.88 30.277L28.604 25L13.033 40.583C13.603 41.193 14.56 41.263 15.628 40.667L33.879 30.277" fill="url(#paint2_linear)"/>
<path fill-rule="evenodd" clip-rule="evenodd" d="M33.88 19.723L15.627 9.34901C14.559 8.73801 13.599 8.82201 13.032 9.43301L28.605 25L33.879 19.723H33.88Z" fill="url(#paint3_linear)"/>
<path opacity="0.2" d="M33.767 30.165L15.641 40.471C14.628 41.054 13.725 41.013 13.142 40.483L13.046 40.58L13.142 40.664C13.725 41.191 14.628 41.234 15.641 40.651L33.891 30.277L33.767 30.165Z" fill="black"/>
<path opacity="0.12" d="M39.985 26.624L33.751 30.165L33.864 30.277L39.969 26.805C40.844 26.306 41.274 25.651 41.274 25C41.221 25.599 40.776 26.166 39.984 26.624H39.985Z" fill="black"/>
<path opacity="0.25" fill-rule="evenodd" clip-rule="evenodd" d="M15.628 9.52999L39.985 23.376C40.775 23.822 41.221 24.405 41.29 25C41.29 24.349 40.86 23.694 39.985 23.195L15.628 9.34999C13.881 8.34899 12.463 9.18399 12.463 11.182V11.363C12.463 9.36199 13.881 8.54299 15.628 9.52999Z" fill="white"/>
<defs>
<linearGradient id="paint0_linear" x1="22.32" y1="10.8825" x2="9.04405" y2="24.1673" gradientUnits="userSpaceOnUse">
<stop stop-color="#00A0FF"/>
<stop offset="0.00657" stop-color="#00A1FF"/>
<stop offset="0.2601" stop-color="#00BEFF"/>
<stop offset="0.5122" stop-color="#00D2FF"/>
<stop offset="0.7604" stop-color="#00DFFF"/>
<stop offset="1" stop-color="#00E3FF"/>
</linearGradient>
<linearGradient id="paint1_linear" x1="42.2635" y1="25" x2="12.0376" y2="25" gradientUnits="userSpaceOnUse">
<stop stop-color="#FFE000"/>
<stop offset="0.4087" stop-color="#FFBD00"/>
<stop offset="0.7754" stop-color="#FFA500"/>
<stop offset="1" stop-color="#FF9C00"/>
</linearGradient>
<linearGradient id="paint2_linear" x1="31.0121" y1="29.9649" x2="8.34546" y2="52.6485" gradientUnits="userSpaceOnUse">
<stop stop-color="#FF3A44"/>
<stop offset="1" stop-color="#C31162"/>
</linearGradient>
<linearGradient id="paint3_linear" x1="9.11028" y1="7.01658" x2="19.2273" y2="17.142" gradientUnits="userSpaceOnUse">
<stop stop-color="#32A071"/>
<stop offset="0.0685" stop-color="#2DA771"/>
<stop offset="0.4762" stop-color="#15CF74"/>
<stop offset="0.8009" stop-color="#06E775"/>
<stop offset="1" stop-color="#00F076"/>
</linearGradient>
</defs>
</svg>
