<svg width="193" height="70" viewBox="0 0 193 70" fill="none" xmlns="http://www.w3.org/2000/svg">
<path fill-rule="evenodd" clip-rule="evenodd" d="M163.098 30.833C163.005 30.721 162.864 30.654 162.715 30.654H160.119C159.883 30.654 159.676 30.819 159.629 31.05L159.427 32.03C158.851 31.514 158.276 31.184 157.452 30.865L157.194 30.752C157.162 30.741 157.131 30.728 157.098 30.722C154.28 30.105 151.447 30.952 149.128 33.106C147.97 34.169 147.092 35.401 146.51 36.727L149.92 22.911C149.95 22.801 149.924 22.681 149.853 22.591C149.783 22.501 149.673 22.448 149.558 22.448H146.398C146.288 22.448 146.188 22.493 146.117 22.575L132.367 38.057C132.849 35.737 135.551 22.898 135.551 22.898C135.551 22.873 135.558 22.845 135.558 22.821C135.558 22.738 135.531 22.652 135.474 22.586C135.404 22.499 135.295 22.448 135.184 22.448H131.694C131.583 22.448 131.479 22.496 131.409 22.575L113.971 42.665C113.678 39.74 112.284 36.555 112.284 36.555C109.947 31.778 104.747 30.231 101.798 32.97L101.778 32.975L101.315 33.31C103.454 29.904 108.882 30.056 112.375 34.066C112.375 34.066 113.928 35.928 115.029 38.698C115.323 37.72 115.503 36.706 115.558 35.67C113.738 33.215 111.688 31.773 111.688 31.773C107.274 28.803 101.991 30.057 100.81 33.9L100.794 33.916L100.566 34.436C100.71 30.416 105.484 27.844 110.518 29.573C110.518 29.573 112.888 30.441 115.28 32.363C115.248 32.21 115.215 32.057 115.173 31.903C114.915 30.888 114.539 29.925 114.056 29.028C111.266 27.823 108.792 27.599 108.792 27.599C103.479 27.231 99.535 30.947 100.439 34.865L100.432 34.886L100.492 35.453C98.604 31.899 101.448 27.293 106.672 26.276C106.672 26.276 109.099 25.856 112.082 26.299C111.326 25.502 110.462 24.804 109.504 24.214C106.513 24.564 104.281 25.597 104.281 25.597C99.498 27.925 97.944 33.114 100.691 36.059L100.694 36.076L101.031 36.539C97.616 34.403 97.771 28.992 101.787 25.506C101.787 25.506 103.664 23.946 106.457 22.84C105.305 22.496 104.11 22.32 102.906 22.313C100.571 24.085 99.209 26.01 99.209 26.01C96.232 30.415 97.489 35.683 101.34 36.863L101.355 36.875L101.878 37.108C97.851 36.964 95.272 32.2 97.004 27.178C97.004 27.178 97.802 25.012 99.562 22.735C98.554 22.996 97.601 23.377 96.707 23.855C95.57 26.56 95.357 28.915 95.357 28.915C94.987 34.215 98.715 38.15 102.643 37.251L102.661 37.256L103.231 37.193C99.669 39.079 95.048 36.241 94.034 31.026C94.034 31.026 93.627 28.696 94.034 25.793C93.185 26.595 92.442 27.516 91.827 28.545C92.208 31.405 93.182 33.507 93.182 33.507C95.517 38.282 100.717 39.831 103.666 37.09L103.688 37.086L104.15 36.752C102.012 40.157 96.583 40.005 93.092 35.995C93.092 35.995 91.302 33.764 90.366 31.165C90.368 31.043 90.331 30.926 90.254 30.833C90.158 30.721 90.018 30.654 89.866 30.654H87.273C87.035 30.654 86.83 30.819 86.78 31.05C86.78 31.05 86.581 31.352 86.49 31.946C85.914 31.432 85.231 31.134 84.608 30.865L84.344 30.752C84.314 30.741 84.281 30.728 84.251 30.722C81.433 30.105 78.601 30.952 76.281 33.106C74.91 34.365 73.926 35.858 73.367 37.471L73.319 37.577L74.422 31.237C74.446 31.094 74.406 30.944 74.31 30.831C74.213 30.719 74.072 30.653 73.926 30.654L71.158 30.658C70.916 30.659 70.708 30.831 70.665 31.071L67.805 46.627C67.78 46.773 67.821 46.924 67.915 47.039C68.01 47.15 68.152 47.215 68.3 47.215L71.217 47.222C71.463 47.222 71.672 47.046 71.712 46.806L72.814 40.476C72.826 40.516 72.836 40.542 72.836 40.542C72.826 41.171 72.878 41.809 72.996 42.446C73.425 44.825 75.539 47.044 77.818 47.496C79.806 47.855 81.932 47.352 84.03 46.06C83.989 46.286 83.923 46.627 83.923 46.627C83.917 46.657 83.915 46.687 83.915 46.719C83.915 46.835 83.955 46.949 84.03 47.039C84.124 47.152 84.266 47.215 84.418 47.215L86.992 47.222C87.234 47.222 87.442 47.052 87.486 46.814L89.752 34.571C91.447 36.579 93.664 38.294 93.664 38.294C98.077 41.266 103.358 40.011 104.539 36.17L104.557 36.153L104.786 35.631C104.642 39.65 99.866 42.226 94.832 40.494C94.832 40.494 92.661 39.698 90.374 37.942C90.393 38.025 90.41 38.111 90.431 38.196C90.703 39.247 91.096 40.245 91.605 41.171C94.265 42.264 96.56 42.471 96.56 42.471C101.87 42.841 105.815 39.122 104.913 35.203L104.92 35.183L104.857 34.614C106.747 38.168 103.902 42.781 98.675 43.791C98.675 43.791 96.392 44.191 93.528 43.804C94.214 44.524 94.986 45.17 95.839 45.724C98.807 45.365 101.005 44.345 101.005 44.345C105.79 42.018 107.346 36.828 104.599 33.886L104.593 33.864L104.257 33.404C107.673 35.539 107.52 40.95 103.503 44.437C103.503 44.437 101.587 46.024 98.755 47.132C99.535 47.395 100.339 47.581 101.152 47.688H102.31C104.689 45.898 106.077 43.932 106.077 43.932C109.057 39.527 107.801 34.257 103.947 33.08L103.932 33.064L103.411 32.834C107.439 32.979 110.019 37.742 108.286 42.766C108.286 42.766 107.42 45.116 105.501 47.499C105.655 47.465 105.803 47.433 105.956 47.393C106.93 47.147 107.846 46.786 108.697 46.348C109.887 43.585 110.107 41.143 110.107 41.143C110.48 35.847 106.751 31.909 102.82 32.81L102.804 32.806L102.235 32.866C105.795 30.982 110.419 33.82 111.435 39.035C111.435 39.035 112.021 41.429 111.582 44.265C111.498 44.675 111.326 45.268 110.994 45.902C110.894 46.078 110.769 46.286 110.617 46.528L110.621 46.521C110.619 46.528 110.613 46.533 110.609 46.541C110.605 46.548 110.605 46.549 110.605 46.555C110.545 46.656 110.533 46.783 110.585 46.895C110.643 47.029 110.777 47.114 110.926 47.111H112.545C113.397 47.107 114.128 47.102 115.101 47.136C115.217 47.138 115.328 47.088 115.402 47.003L129.482 30.209C128.888 33.273 127.203 41.151 125.997 46.682C125.994 46.709 125.991 46.736 125.991 46.762C125.991 46.847 126.019 46.93 126.071 46.996C126.144 47.086 126.251 47.136 126.369 47.136L129.217 47.111C129.325 47.111 129.428 47.065 129.498 46.981C129.498 46.981 142.127 32.244 143.743 30.361C143.07 33.437 141.226 41.207 139.912 46.674C139.902 46.704 139.898 46.73 139.898 46.761C139.898 46.842 139.926 46.925 139.98 46.992C140.052 47.083 140.159 47.136 140.276 47.136H143.644C143.816 47.136 143.969 47.019 144.01 46.849L145.468 40.948L145.671 40.118C145.678 40.355 145.681 40.542 145.681 40.542C145.674 41.171 145.726 41.809 145.844 42.446C146.269 44.825 148.388 47.044 150.663 47.496C152.65 47.855 154.779 47.352 156.876 46.06L156.769 46.627C156.764 46.657 156.76 46.687 156.76 46.719C156.76 46.835 156.8 46.949 156.874 47.039C156.972 47.152 157.114 47.215 157.26 47.215L159.836 47.222C160.081 47.222 160.287 47.052 160.331 46.814L162.657 34.487L163.214 31.165C163.216 31.043 163.178 30.926 163.097 30.833H163.098ZM1.37 46.896V46.586C1.386 46.554 1.405 46.523 1.43 46.496L22.234 22.575C22.306 22.495 22.408 22.447 22.519 22.447H25.877C25.987 22.447 26.093 22.498 26.167 22.585C26.22 22.651 26.251 22.739 26.251 22.82C26.251 22.844 26.246 22.872 26.241 22.897C26.241 22.897 23.636 35.735 23.151 38.057C24.794 36.207 36.903 22.575 36.903 22.575C36.973 22.493 37.077 22.448 37.181 22.448H40.343C40.459 22.448 40.569 22.501 40.64 22.591C40.71 22.681 40.736 22.801 40.706 22.911L37.388 36.351C37.416 36.301 37.439 36.252 37.465 36.206C39.044 33.142 42.045 30.988 45.292 30.592C45.302 30.589 45.315 30.589 45.328 30.589C48.265 30.441 50.532 31.549 51.891 33.789L51.913 33.825C52.401 34.803 52.765 36.118 52.83 37.471C53.385 35.858 54.37 34.365 55.74 33.106C58.06 30.952 60.89 30.105 63.711 30.722C63.74 30.728 63.775 30.741 63.804 30.752L64.066 30.865C64.692 31.134 65.373 31.432 65.949 31.946C66.254 30.515 67.149 26.268 67.149 26.268C67.199 26.038 67.403 25.872 67.639 25.872H70.234C70.384 25.872 70.524 25.939 70.62 26.05C70.715 26.164 70.755 26.316 70.73 26.462L66.945 46.814C66.9 47.052 66.694 47.222 66.452 47.222L63.877 47.215C63.727 47.215 63.583 47.152 63.488 47.039C63.413 46.949 63.372 46.835 63.372 46.719C63.372 46.688 63.376 46.656 63.382 46.627C63.382 46.627 63.447 46.286 63.488 46.06C61.39 47.352 59.267 47.855 57.277 47.495C55 47.044 52.883 44.825 52.455 42.446C52.339 41.809 52.287 41.171 52.293 40.542C52.203 40.622 52.084 40.672 51.957 40.672L40.007 40.677C39.996 40.727 39.987 40.77 39.987 40.822C39.987 41.004 40.051 41.242 40.133 41.512L40.184 41.687C40.751 43.077 42.112 43.949 43.656 43.912C45.191 43.877 46.613 43.144 47.877 41.735C47.97 41.628 48.107 41.568 48.248 41.568H50.912C51.084 41.568 51.246 41.656 51.335 41.802C51.428 41.947 51.44 42.129 51.368 42.284C49.855 45.456 46.464 47.586 42.905 47.586C40.428 47.49 38.35 46.288 37.193 44.278C36.617 43.207 36.344 41.878 36.36 40.516L34.797 46.849C34.755 47.019 34.602 47.136 34.43 47.136H31.06C30.946 47.136 30.837 47.083 30.768 46.992C30.712 46.925 30.684 46.842 30.684 46.762C30.684 46.73 30.689 46.703 30.694 46.674C32.011 41.207 33.856 33.437 34.526 30.362L20.283 46.982C20.213 47.065 20.111 47.111 20.002 47.111L17.155 47.136C17.04 47.136 16.934 47.086 16.861 46.996C16.807 46.93 16.777 46.846 16.777 46.761C16.777 46.736 16.777 46.709 16.784 46.682C17.989 41.151 19.674 33.272 20.267 30.209L6.187 47.003C6.114 47.088 6.003 47.138 5.887 47.136C4.915 47.102 4.183 47.106 3.331 47.111H1.71C1.565 47.114 1.432 47.029 1.37 46.896ZM158.467 39.332C157.884 41.364 155.957 43.299 154.072 43.755C152.63 43.945 151.574 43.81 150.842 43.335C150.065 42.803 149.675 41.88 149.374 41.048C149.324 40.75 149.294 40.45 149.294 40.157C149.294 38.306 150.288 36.522 152.116 35.155C153.163 34.423 154.592 34.145 155.842 34.431C156.547 34.594 157.515 35.012 158.117 36.101C158.452 36.692 158.633 37.441 158.633 38.171C158.633 38.575 158.577 38.971 158.467 39.332ZM41.131 36.997L48.874 36.924C48.814 36.371 48.522 35.854 47.91 35.242C47.235 34.665 46.31 34.394 44.995 34.387C43.571 34.585 41.908 35.519 41.131 36.997ZM65.081 39.332C65.191 38.971 65.244 38.575 65.244 38.172C65.244 37.441 65.066 36.692 64.73 36.102C64.123 35.012 63.16 34.594 62.452 34.432C61.204 34.145 59.775 34.422 58.724 35.155C56.901 36.522 55.906 38.305 55.906 40.157C55.906 40.45 55.934 40.75 55.986 41.048C56.287 41.88 56.676 42.803 57.452 43.335C58.188 43.81 59.246 43.945 60.683 43.755C62.567 43.299 64.494 41.364 65.081 39.332ZM71.389 26.268L70.784 29.54C70.756 29.686 70.797 29.839 70.892 29.957C70.987 30.069 71.128 30.135 71.28 30.135H74.2C74.44 30.135 74.65 29.965 74.693 29.725L75.242 26.482C75.265 26.337 75.226 26.185 75.133 26.072C75.038 25.959 74.897 25.892 74.753 25.891L71.882 25.866C71.642 25.864 71.435 26.035 71.389 26.268ZM85.622 39.332C85.037 41.364 83.108 43.299 81.226 43.755C79.786 43.945 78.73 43.81 77.994 43.335C77.218 42.803 76.83 41.88 76.529 41.048C76.477 40.75 76.449 40.45 76.449 40.157C76.449 38.306 77.442 36.522 79.269 35.155C80.319 34.423 81.744 34.145 82.996 34.431C83.702 34.594 84.667 35.012 85.271 36.101C85.608 36.692 85.788 37.441 85.788 38.171C85.788 38.575 85.731 38.971 85.622 39.332ZM181.598 45.773L176.788 38.069C177.178 37.61 181.271 32.635 182.102 31.66L181.734 33.589C181.706 33.736 181.747 33.887 181.843 34C181.937 34.113 182.077 34.181 182.228 34.181H183.503C183.358 35.061 182.024 43.168 181.598 45.773ZM167.596 31.605L167.653 31.245C167.682 31.1 167.64 30.949 167.548 30.835C167.451 30.722 167.312 30.655 167.164 30.655H164.566C164.326 30.652 164.116 30.821 164.07 31.059L163.997 31.451L161.221 46.585C161.197 46.731 161.241 46.884 161.339 46.997C161.437 47.109 161.586 47.176 161.736 47.172L163.018 47.153H164.223C164.463 47.153 164.663 46.986 164.71 46.755L166.615 37.363C167.244 34.983 168.825 34.274 170.223 34.068C170.298 34.058 170.58 34.062 170.64 34.024C169.682 39.718 168.548 46.46 168.527 46.574C168.503 46.716 168.545 46.864 168.64 46.977C168.734 47.088 168.876 47.153 169.019 47.153H171.816C172.035 47.153 172.23 47.013 172.292 46.803C172.382 46.529 173.051 42.659 173.452 40.334C174.488 41.901 177.797 46.924 177.797 46.924C177.89 47.064 178.047 47.148 178.214 47.148L181.558 47.153C181.619 47.153 181.674 47.139 181.731 47.121C181.802 47.153 181.881 47.175 181.959 47.172L184.782 47.153C185.026 47.151 185.231 46.977 185.271 46.743L187.451 34.187L190.691 34.182C190.934 34.182 191.141 34.007 191.184 33.769L191.62 31.235C191.626 31.207 191.629 31.181 191.629 31.15C191.629 31.036 191.587 30.922 191.513 30.832C191.418 30.72 191.279 30.655 191.128 30.655H187.935C188.091 29.759 188.659 26.455 188.659 26.455C188.663 26.427 188.666 26.399 188.666 26.371C188.666 26.252 188.626 26.138 188.549 26.05C188.456 25.935 188.313 25.873 188.168 25.873H185.361C185.119 25.873 184.911 26.047 184.869 26.285C184.869 26.285 184.245 29.978 184.129 30.655C183.875 30.663 183.614 30.668 183.614 30.668L183.176 30.671L182.711 30.663C182.533 30.659 182.374 30.75 182.281 30.893C182.191 30.757 182.039 30.668 181.869 30.668L179.3 30.663H178.549C178.409 30.663 178.277 30.722 178.18 30.823C178.18 30.823 175.596 33.777 174.224 35.26C174.625 32.91 175.732 26.463 175.732 26.463C175.736 26.433 175.739 26.406 175.739 26.376C175.739 26.26 175.696 26.146 175.619 26.058C175.526 25.943 175.386 25.879 175.239 25.879L172.444 25.873C172.198 25.871 171.987 26.046 171.948 26.284C171.883 26.669 171.593 28.384 171.204 30.671L171.191 30.651C171.093 30.536 170.95 30.476 170.798 30.481C169.608 30.516 168.533 31.002 167.596 31.605Z" fill="#222222"/>
</svg>
