<svg width="192" height="70" viewBox="0 0 192 70" fill="none" xmlns="http://www.w3.org/2000/svg">
<path fill-rule="evenodd" clip-rule="evenodd" d="M73.223 32.909C73.391 29.156 76.563 26.249 80.305 26.419L80.406 26.424C83.732 26.22 86.593 28.758 86.796 32.092C86.813 32.364 86.811 32.637 86.791 32.909H73.223ZM80.395 20.539C71.415 20.539 67.483 26.577 66.227 31.685C65.882 33.062 65.709 34.477 65.711 35.898C65.663 39.262 66.673 42.556 68.598 45.312C71.514 49.072 75.997 51.273 80.747 51.278C85.595 51.455 88.834 50.631 91.311 49.22C91.806 48.898 92.041 48.297 91.898 47.725V43.805C91.898 43.006 91.417 42.629 90.724 43.111C87.824 44.974 84.385 45.804 80.958 45.465C76.92 45.412 73.556 42.347 73.118 38.322H93.071C93.521 38.322 93.887 37.96 93.894 37.509C94.245 32.037 92.66 20.539 80.395 20.539ZM32.035 45.912H23.267C22.142 45.88 21.056 45.497 20.157 44.817C19.219 44.157 18.669 43.073 18.69 41.923C18.69 40.333 19.758 37.157 25.098 37.157H32.036V45.912H32.035ZM38.55 32.862C38.55 28.849 37.659 25.8 35.732 23.694C33.808 21.588 29.934 20.54 26.342 20.54C22.738 20.526 19.193 21.472 16.072 23.282C15.874 23.4 15.752 23.615 15.756 23.847L16.026 28.272C16.1 28.701 16.508 28.988 16.936 28.912C17.077 28.888 17.209 28.825 17.316 28.731C21.718 26.013 27 25.506 29.688 26.871C31.195 27.741 32.098 29.377 32.036 31.121V31.767H24.699C21.542 31.767 11.87 32.944 11.87 41.852V41.947C11.718 44.696 12.882 47.354 15.004 49.101C17.29 50.716 20.054 51.508 22.844 51.349H37.694C38.173 51.349 38.562 50.959 38.562 50.479V32.826L38.55 32.861V32.862ZM112.286 45.395C108.659 45.395 106.041 42.735 104.938 39.428C104.158 37.139 104.158 34.656 104.938 32.367C106.041 29.06 108.659 26.401 112.286 26.401C120.396 26.401 120.666 34.697 120.666 35.898C120.666 37.098 120.396 45.395 112.286 45.395ZM127.322 35.909C127.386 32.543 126.374 29.244 124.435 26.495C119.229 19.768 109.57 18.545 102.86 23.765C101.842 24.557 100.928 25.474 100.137 26.495C96.232 32.161 96.232 39.658 100.137 45.324C103.006 49.142 107.519 51.358 112.287 51.291C115.364 51.301 118.377 50.391 120.937 48.678V52.397C120.937 57.445 116.535 58.363 113.717 58.539C111.779 58.604 109.839 58.498 107.919 58.222C107.145 58.104 106.605 58.222 106.605 59.057V63.529C106.625 63.952 106.981 64.279 107.402 64.259H107.403C113.941 64.824 118.343 64.706 121.653 62.812C123.971 61.437 125.693 59.241 126.477 56.657C127.062 54.663 127.343 52.592 127.31 50.514V35.909H127.322ZM148.932 22.269V25.8C148.998 26.303 148.646 26.765 148.145 26.833C148.015 26.85 147.882 26.839 147.757 26.801C142.052 25.624 138.543 28.166 138.543 33.451V50.514C138.543 50.994 138.153 51.384 137.675 51.384H132.627C132.147 51.384 131.759 50.994 131.759 50.514V33.085C131.698 29.751 133.049 26.547 135.479 24.271C137.947 21.852 141.266 20.507 144.717 20.528C145.899 20.531 147.077 20.641 148.238 20.858C148.837 21.058 148.931 21.411 148.931 22.318V22.27L148.932 22.269ZM49.958 50.515C49.958 50.995 49.568 51.385 49.089 51.385H44.042C43.562 51.385 43.173 50.995 43.173 50.515V8.91497C43.173 8.43797 43.555 8.04897 44.03 8.04297H49.077C49.557 8.04297 49.947 8.43297 49.947 8.91497V50.515H49.957H49.958ZM61.813 50.515C61.813 50.995 61.423 51.385 60.945 51.385H55.897C55.417 51.385 55.028 50.995 55.028 50.515V8.91497C55.028 8.43297 55.418 8.04297 55.897 8.04297H60.945C61.424 8.04297 61.813 8.43297 61.813 8.91497V50.515ZM172.441 39.453C171.337 42.76 168.719 45.336 165.093 45.419C161.465 45.502 158.848 42.759 157.756 39.453C156.976 37.163 156.976 34.68 157.756 32.392C158.86 29.085 161.477 26.507 165.093 26.425C168.708 26.343 171.337 29.085 172.441 32.392C173.217 34.677 173.217 37.156 172.441 39.441V39.453ZM177.253 26.507C172.047 19.781 162.388 18.559 155.678 23.777C154.661 24.57 153.746 25.487 152.956 26.507C151.029 29.264 150.019 32.557 150.068 35.922C150.019 39.287 151.029 42.581 152.956 45.336C158.162 52.063 167.821 53.286 174.53 48.066C175.548 47.275 176.463 46.358 177.253 45.336C179.178 42.581 180.189 39.286 180.141 35.922C180.189 32.558 179.178 29.264 177.253 26.507Z" fill="#222222"/>
</svg>
