<svg width="29" height="29" viewBox="0 0 29 29" fill="none" xmlns="http://www.w3.org/2000/svg">
<path d="M14.5 29C22.5081 29 29 22.5081 29 14.5C29 6.49187 22.5081 0 14.5 0C6.49187 0 0 6.49187 0 14.5C0 22.5081 6.49187 29 14.5 29Z" fill="white"/>
<path d="M14.5 28C21.9558 28 28 21.9558 28 14.5C28 7.04416 21.9558 1 14.5 1C7.04416 1 1 7.04416 1 14.5C1 21.9558 7.04416 28 14.5 28Z" stroke="black" stroke-width="2"/>
<path d="M20.519 14.136C20.6701 14.224 20.7954 14.3501 20.8825 14.5017C20.9697 14.6533 21.0155 14.8251 21.0155 15C21.0155 15.1748 20.9697 15.3466 20.8825 15.4982C20.7954 15.6498 20.6701 15.776 20.519 15.864L11.5 21.123C11.3481 21.2107 11.1759 21.2569 11.0005 21.257C10.8251 21.2571 10.6528 21.211 10.5009 21.1235C10.3489 21.036 10.2226 20.91 10.1347 20.7583C10.0468 20.6065 10.0003 20.4344 9.99999 20.259V9.74099C10.0003 9.56562 10.0468 9.39343 10.1347 9.2417C10.2226 9.08996 10.3489 8.96401 10.5009 8.87648C10.6528 8.78895 10.8251 8.74292 11.0005 8.74301C11.1759 8.7431 11.3481 8.7893 11.5 8.87699L20.519 14.136Z" fill="black"/>
</svg>
