<svg width="234" height="24" viewBox="0 0 234 24" fill="none" xmlns="http://www.w3.org/2000/svg">
<path fill-rule="evenodd" clip-rule="evenodd" d="M38.45 15.1512C38.611 15.2913 38.699 15.4973 38.69 15.7113C38.69 16.3142 38.34 16.6152 37.644 16.6152H31.65C31.19 16.6432 30.792 16.2923 30.765 15.8313C30.763 15.8033 30.763 15.7743 30.764 15.7452C30.764 15.4352 30.892 15.1413 31.117 14.9303L36.065 9.60625H32.235C31.985 9.62325 31.736 9.55125 31.535 9.40125C31.371 9.25625 31.283 9.04425 31.295 8.82525C31.295 8.23425 31.643 7.93825 32.341 7.93825H38.069C38.311 7.92625 38.548 8.02025 38.716 8.19525C38.872 8.36025 38.958 8.58025 38.955 8.80825C38.949 9.12025 38.821 9.41925 38.601 9.64125L33.671 14.9473H37.749C37.999 14.9303 38.249 15.0022 38.45 15.1512ZM41.615 11.4862H45.658C45.711 10.9012 45.547 10.3162 45.197 9.84625C44.857 9.46325 44.36 9.25825 43.849 9.28725C42.596 9.28725 41.852 10.0203 41.615 11.4873V11.4862ZM47.335 12.4712C47.195 12.6082 47.005 12.6833 46.811 12.6753H41.545C41.53 13.3313 41.767 13.9662 42.208 14.4502C42.681 14.8762 43.304 15.0932 43.938 15.0542C44.318 15.0592 44.698 15.0083 45.064 14.9043C45.416 14.7952 45.753 14.6442 46.066 14.4502C46.201 14.3722 46.353 14.3302 46.509 14.3263C46.692 14.3182 46.869 14.4012 46.979 14.5483C47.094 14.7052 47.154 14.8952 47.147 15.0892C47.149 15.4292 46.983 15.7483 46.704 15.9412C46.319 16.2092 45.89 16.4082 45.436 16.5273C44.902 16.6813 44.351 16.7592 43.796 16.7572C42.991 16.7762 42.194 16.5963 41.473 16.2343C40.827 15.9023 40.294 15.3853 39.939 14.7522C39.567 14.0672 39.38 13.2952 39.399 12.5153C39.384 11.6593 39.573 10.8113 39.948 10.0413C40.291 9.33825 40.826 8.74825 41.491 8.33725C42.175 7.92325 42.961 7.71025 43.761 7.72425C44.805 7.66025 45.825 8.05525 46.554 8.80725C47.259 9.67525 47.611 10.7773 47.538 11.8953C47.552 12.1073 47.476 12.3152 47.334 12.4712H47.335ZM56.46 8.51425C57.005 9.16425 57.275 10.0023 57.215 10.8483C57.215 11.0723 57.208 11.2442 57.195 11.3632L56.841 15.6573C56.833 15.9553 56.705 16.2362 56.486 16.4373C56.261 16.6322 55.968 16.7332 55.671 16.7222C55.378 16.7402 55.09 16.6372 54.872 16.4382C54.677 16.2282 54.585 15.9413 54.625 15.6573L54.98 11.4522C55.074 10.1382 54.554 9.48225 53.42 9.48225C52.85 9.45025 52.295 9.66325 51.894 10.0673C51.501 10.5223 51.276 11.0982 51.256 11.7002L50.919 15.6573C50.911 15.9553 50.783 16.2362 50.564 16.4373C50.339 16.6322 50.046 16.7332 49.749 16.7222C49.459 16.7413 49.171 16.6382 48.959 16.4382C48.769 16.2252 48.675 15.9413 48.702 15.6573L49.27 8.77125C49.271 8.48625 49.402 8.21525 49.624 8.03525C49.861 7.84825 50.157 7.75125 50.458 7.76025C50.733 7.74425 51.001 7.84025 51.203 8.02625C51.384 8.21625 51.463 8.47925 51.416 8.73625L51.397 9.07325C51.699 8.64325 52.108 8.30025 52.586 8.07925C53.107 7.83825 53.677 7.71625 54.253 7.72525C55.067 7.66625 55.868 7.95325 56.46 8.51525V8.51425ZM21.568 7.48025C20.664 6.08625 18.86 5.58825 17.369 6.32025C15.777 7.13025 15.142 9.07725 15.949 10.6702C16.41 11.5782 17.271 12.2172 18.273 12.3942C18.151 16.2343 14.941 19.2502 11.102 19.1283C7.374 19.0103 4.403 15.9692 4.369 12.2362C4.363 9.36025 6.149 6.78625 8.845 5.78825C9.363 5.60125 9.663 5.05825 9.543 4.51925L9.535 4.48625C9.403 3.89625 9.773 3.31225 10.361 3.17925C10.409 3.16925 10.458 3.16125 10.507 3.15725C10.777 3.13225 11.05 3.11925 11.323 3.11925C11.661 3.11925 12 3.13925 12.335 3.17525C12.943 3.24225 13.491 2.80225 13.556 2.19525C13.559 2.17525 13.561 2.15325 13.562 2.13325C13.578 1.53025 13.12 1.01925 12.52 0.96925C12.122 0.92625 11.722 0.90625 11.323 0.90625C5.07 0.90625 0 5.98025 0 12.2382C0 18.4972 5.07 23.5693 11.323 23.5693C17.577 23.5693 22.646 18.4972 22.646 12.2382C22.646 11.1302 22.423 8.74225 21.568 7.48025Z" fill="#AAAAAA"/>
<path fill-rule="evenodd" clip-rule="evenodd" d="M15.594 1.76611C16.241 1.76611 16.767 2.29211 16.767 2.94011C16.767 3.58811 16.241 4.11411 15.594 4.11411C14.946 4.11411 14.421 3.58811 14.421 2.94011C14.421 2.29211 14.946 1.76611 15.594 1.76611ZM66.088 11.1651C66.735 11.1651 67.261 11.6901 67.261 12.3391C67.261 12.9871 66.735 13.5131 66.088 13.5131C65.44 13.5131 64.914 12.9871 64.914 12.3391C64.914 11.6891 65.44 11.1651 66.088 11.1651ZM80.902 8.40611C81.018 8.53311 81.077 8.69111 81.077 8.87911C81.077 9.12411 80.987 9.33911 80.81 9.52811L75.793 15.0311H80.08C80.302 15.0311 80.473 15.0871 80.595 15.1981C80.716 15.3091 80.778 15.4581 80.778 15.6471C80.778 15.8681 80.711 16.0371 80.578 16.1541C80.446 16.2701 80.251 16.3281 79.997 16.3281H74.216C74.003 16.3281 73.84 16.2681 73.725 16.1451C73.609 16.0251 73.551 15.8681 73.551 15.6801C73.551 15.4591 73.639 15.2541 73.816 15.0651L78.851 9.51211H74.846C74.624 9.51211 74.453 9.45611 74.331 9.34511C74.211 9.23411 74.149 9.08511 74.149 8.89611C74.149 8.44111 74.404 8.21511 74.913 8.21511H80.413C80.623 8.21511 80.786 8.27811 80.903 8.40511L80.902 8.40611ZM84.369 9.84411C83.969 10.2441 83.714 10.8241 83.604 11.5901H87.89C87.913 10.8251 87.754 10.2431 87.417 9.84411C87.079 9.44411 86.6 9.24611 85.98 9.24611C85.304 9.24611 84.767 9.44511 84.369 9.84411ZM89.179 12.3791C89.061 12.4961 88.905 12.5541 88.704 12.5541H83.537C83.549 13.3741 83.759 14.0091 84.169 14.4591C84.579 14.9071 85.171 15.1321 85.946 15.1321C86.721 15.1321 87.441 14.9101 88.106 14.4661C88.228 14.3881 88.35 14.3501 88.472 14.3501C88.627 14.3501 88.754 14.4111 88.853 14.5331C88.953 14.6551 89.003 14.7981 89.003 14.9651C89.003 15.2211 88.893 15.4361 88.672 15.6141C88.372 15.8571 87.96 16.0571 87.434 16.2121C86.907 16.3681 86.379 16.4451 85.847 16.4451C85.049 16.4451 84.351 16.2841 83.754 15.9631C83.154 15.6411 82.694 15.1811 82.366 14.5831C82.039 13.9831 81.876 13.2921 81.876 12.5051C81.876 11.6281 82.044 10.8501 82.383 10.1681C82.72 9.48611 83.193 8.95811 83.803 8.58111C84.412 8.20411 85.116 8.01411 85.913 8.01411C87.021 8.01411 87.871 8.34411 88.463 9.00411C89.055 9.66411 89.353 10.6201 89.353 11.8721C89.353 12.0941 89.294 12.2631 89.178 12.3791H89.179ZM96.288 8.18111C96.416 8.29211 96.48 8.45311 96.48 8.66311C96.48 9.17311 96.203 9.45011 95.649 9.49411L95.201 9.54411C94.436 9.62211 93.869 9.84411 93.497 10.2091C93.127 10.5751 92.914 11.1141 92.857 11.8231L92.542 15.6131C92.52 15.8901 92.426 16.0931 92.26 16.2201C92.093 16.3481 91.888 16.4121 91.645 16.4121C91.401 16.4121 91.205 16.3451 91.055 16.2121C90.906 16.0791 90.842 15.8801 90.865 15.6131L91.412 8.81311C91.423 8.56911 91.518 8.38111 91.695 8.24711C91.872 8.11511 92.077 8.04911 92.309 8.04911C92.531 8.04911 92.707 8.11211 92.841 8.23911C92.974 8.36711 93.035 8.55211 93.024 8.79611L92.974 9.47911C93.527 8.62511 94.403 8.15411 95.599 8.06511L95.783 8.04911C95.993 8.02711 96.162 8.07111 96.288 8.18111ZM102.456 14.2501C102.866 13.6741 103.073 12.8991 103.073 11.9221C103.073 11.0911 102.88 10.4561 102.499 10.0181C102.117 9.58111 101.57 9.36211 100.863 9.36211C100.086 9.36211 99.493 9.65011 99.083 10.2261C98.675 10.8031 98.47 11.5791 98.47 12.5541C98.47 13.3971 98.661 14.0341 99.042 14.4671C99.425 14.8981 99.975 15.1151 100.695 15.1151C101.461 15.1151 102.047 14.8261 102.456 14.2501ZM98.618 15.9631C98.032 15.6421 97.578 15.1821 97.257 14.5831C96.935 13.9831 96.775 13.2921 96.775 12.5041C96.775 11.5941 96.944 10.8041 97.282 10.1271C97.619 9.45111 98.096 8.93011 98.71 8.56411C99.325 8.19811 100.037 8.01511 100.845 8.01511C101.642 8.01511 102.335 8.17811 102.921 8.50511C103.509 8.83311 103.963 9.29311 104.284 9.88511C104.606 10.4781 104.766 11.1751 104.766 11.9721C104.766 12.8811 104.598 13.6721 104.26 14.3421C103.92 15.0121 103.445 15.5311 102.83 15.8961C102.216 16.2621 101.5 16.4451 100.68 16.4451C99.893 16.4451 99.206 16.2841 98.618 15.9631ZM113.023 9.84411C112.625 10.2441 112.37 10.8241 112.259 11.5901H116.546C116.568 10.8251 116.41 10.2431 116.072 9.84411C115.735 9.44411 115.255 9.24611 114.635 9.24611C113.959 9.24611 113.422 9.44511 113.023 9.84411ZM117.833 12.3791C117.717 12.4961 117.559 12.5541 117.359 12.5541H112.193C112.204 13.3741 112.414 14.0091 112.825 14.4591C113.233 14.9071 113.827 15.1321 114.603 15.1321C115.378 15.1321 116.096 14.9101 116.761 14.4661C116.883 14.3881 117.006 14.3501 117.127 14.3501C117.282 14.3501 117.409 14.4111 117.51 14.5331C117.609 14.6551 117.658 14.7981 117.658 14.9651C117.658 15.2211 117.548 15.4361 117.326 15.6141C117.027 15.8571 116.615 16.0571 116.089 16.2121C115.564 16.3681 115.034 16.4451 114.502 16.4451C113.704 16.4451 113.006 16.2841 112.409 15.9631C111.811 15.6411 111.347 15.1811 111.022 14.5831C110.695 13.9831 110.532 13.2921 110.532 12.5051C110.532 11.6281 110.7 10.8501 111.038 10.1681C111.377 9.48611 111.85 8.95811 112.458 8.58111C113.068 8.20411 113.771 8.01411 114.568 8.01411C115.675 8.01411 116.527 8.34411 117.119 9.00411C117.711 9.66411 118.007 10.6201 118.007 11.8721C118.007 12.0941 117.95 12.2631 117.833 12.3791ZM122.806 6.41911C122.523 6.72911 122.354 7.18911 122.299 7.79911L122.265 8.21511H123.911C124.133 8.21511 124.301 8.27011 124.417 8.38111C124.533 8.49111 124.592 8.64111 124.592 8.82911C124.592 9.28411 124.337 9.51111 123.828 9.51111H122.166L121.684 15.6131C121.673 15.8801 121.582 16.0791 121.411 16.2131C121.238 16.3451 121.037 16.4131 120.804 16.4131C120.571 16.4131 120.378 16.3451 120.222 16.2131C120.067 16.0791 119.995 15.8801 120.007 15.6131L120.488 9.51111H119.508C119.287 9.51111 119.115 9.45611 118.993 9.34511C118.87 9.23411 118.81 9.08511 118.81 8.89611C118.81 8.67511 118.876 8.50611 119.01 8.38911C119.142 8.27211 119.336 8.21511 119.59 8.21511H120.589L120.605 7.99811C120.782 5.87111 121.928 4.74011 124.043 4.60711L124.393 4.59011C124.979 4.55711 125.273 4.75111 125.273 5.17211C125.273 5.38211 125.213 5.54411 125.09 5.65411C124.968 5.76511 124.791 5.83111 124.56 5.85311L124.11 5.88611C123.523 5.93111 123.088 6.10911 122.806 6.41911ZM129.221 6.41911C128.938 6.72911 128.769 7.18911 128.713 7.79911L128.68 8.21511H130.325C130.548 8.21511 130.716 8.27011 130.832 8.38111C130.948 8.49111 131.006 8.64111 131.006 8.82911C131.006 9.28411 130.751 9.51111 130.243 9.51111H128.581L128.099 15.6131C128.088 15.8801 127.997 16.0791 127.825 16.2131C127.653 16.3451 127.451 16.4131 127.218 16.4131C126.986 16.4131 126.792 16.3451 126.637 16.2131C126.482 16.0791 126.41 15.8801 126.421 15.6131L126.903 9.51111H125.923C125.702 9.51111 125.529 9.45611 125.408 9.34511C125.285 9.23411 125.224 9.08511 125.224 8.89611C125.224 8.67511 125.291 8.50611 125.424 8.38911C125.556 8.27211 125.751 8.21511 126.006 8.21511H127.003L127.02 7.99811C127.197 5.87111 128.343 4.74011 130.458 4.60711L130.807 4.59011C131.394 4.55711 131.687 4.75111 131.687 5.17211C131.687 5.38211 131.627 5.54411 131.505 5.65411C131.382 5.76511 131.205 5.83111 130.974 5.85311L130.524 5.88611C129.938 5.93111 129.504 6.10911 129.221 6.41911ZM137.07 14.2501C137.48 13.6741 137.685 12.8991 137.685 11.9221C137.685 11.0911 137.495 10.4561 137.112 10.0181C136.73 9.58111 136.184 9.36211 135.476 9.36211C134.699 9.36211 134.108 9.65011 133.697 10.2261C133.287 10.8031 133.084 11.5791 133.084 12.5541C133.084 13.3971 133.274 14.0341 133.656 14.4671C134.039 14.8981 134.589 15.1151 135.309 15.1151C136.074 15.1151 136.659 14.8261 137.07 14.2501ZM133.232 15.9631C132.645 15.6421 132.192 15.1821 131.87 14.5831C131.55 13.9831 131.388 13.2921 131.388 12.5041C131.388 11.5941 131.558 10.8041 131.895 10.1271C132.232 9.45111 132.709 8.93011 133.325 8.56411C133.938 8.19811 134.651 8.01511 135.458 8.01511C136.256 8.01511 136.948 8.17811 137.535 8.50511C138.123 8.83311 138.575 9.29311 138.898 9.88511C139.219 10.4781 139.38 11.1751 139.38 11.9721C139.38 12.8811 139.21 13.6721 138.873 14.3421C138.535 15.0121 138.058 15.5311 137.443 15.8961C136.83 16.2621 136.113 16.4451 135.293 16.4451C134.506 16.4451 133.82 16.2841 133.233 15.9631H133.232ZM146.317 8.18111C146.445 8.29211 146.509 8.45311 146.509 8.66311C146.509 9.17311 146.231 9.45011 145.679 9.49411L145.229 9.54411C144.466 9.62211 143.898 9.84411 143.526 10.2091C143.156 10.5751 142.943 11.1141 142.887 11.8231L142.571 15.6131C142.549 15.8901 142.455 16.0931 142.29 16.2201C142.122 16.3481 141.918 16.4121 141.675 16.4121C141.43 16.4121 141.235 16.3451 141.083 16.2121C140.935 16.0791 140.871 15.8801 140.894 15.6131L141.442 8.81311C141.453 8.56911 141.547 8.38111 141.725 8.24711C141.901 8.11511 142.106 8.04911 142.338 8.04911C142.56 8.04911 142.737 8.11211 142.871 8.23911C143.003 8.36711 143.065 8.55211 143.052 8.79611L143.003 9.47911C143.556 8.62511 144.431 8.15411 145.629 8.06511L145.811 8.04911C146.021 8.02711 146.191 8.07111 146.317 8.18111ZM150.14 13.3191C150.129 13.3851 150.124 13.4851 150.124 13.6191C150.124 14.1171 150.237 14.4961 150.465 14.7571C150.691 15.0181 151.01 15.1471 151.42 15.1471C151.553 15.1471 151.685 15.1391 151.817 15.1241C151.951 15.1061 152.057 15.0991 152.134 15.0991C152.266 15.0991 152.373 15.1511 152.45 15.2561C152.527 15.3621 152.566 15.5081 152.566 15.6961C152.566 15.9741 152.459 16.1681 152.242 16.2791C152.026 16.3891 151.646 16.4451 151.104 16.4451C150.262 16.4451 149.608 16.2121 149.143 15.7471C148.678 15.2801 148.445 14.6271 148.445 13.7841C148.445 13.6071 148.451 13.4691 148.463 13.3681L148.762 9.51211H147.781C147.559 9.51211 147.388 9.45611 147.266 9.34511C147.144 9.23511 147.083 9.07911 147.083 8.87911C147.083 8.66911 147.15 8.50611 147.283 8.38911C147.416 8.27311 147.609 8.21411 147.863 8.21411H148.861L148.993 6.48511C149.016 6.25311 149.11 6.06511 149.277 5.91911C149.443 5.77611 149.647 5.70411 149.892 5.70411C150.146 5.70411 150.344 5.77611 150.489 5.91911C150.634 6.06511 150.693 6.25911 150.672 6.50211L150.538 8.21411H152.184C152.394 8.21411 152.56 8.27011 152.684 8.38011C152.804 8.49111 152.864 8.64011 152.864 8.83011C152.864 9.28511 152.61 9.51211 152.101 9.51211H150.439L150.14 13.3191ZM164.935 8.73011C165.405 9.20711 165.641 9.91011 165.641 10.8421C165.641 11.0641 165.636 11.2301 165.624 11.3411L165.292 15.6131C165.269 15.8681 165.178 16.0651 165.018 16.2041C164.858 16.3421 164.651 16.4121 164.395 16.4121C164.141 16.4121 163.941 16.3421 163.797 16.2041C163.653 16.0651 163.592 15.8681 163.614 15.6141L163.948 11.4241C163.957 11.3461 163.963 11.2301 163.963 11.0741C163.963 9.94411 163.421 9.37811 162.336 9.37811C161.648 9.37811 161.103 9.58311 160.699 9.99311C160.294 10.4031 160.065 10.9751 160.009 11.7061L159.693 15.6131C159.671 15.8681 159.58 16.0651 159.42 16.2041C159.258 16.3421 159.05 16.4121 158.796 16.4121C158.542 16.4121 158.344 16.3421 158.206 16.2041C158.068 16.0651 158.004 15.8681 158.016 15.6141L158.564 8.81411C158.575 8.58111 158.669 8.39411 158.847 8.25611C159.024 8.11711 159.234 8.04811 159.477 8.04811C159.709 8.04811 159.893 8.11511 160.026 8.24811C160.159 8.38111 160.219 8.56411 160.209 8.79611L160.159 9.37811C160.436 8.94611 160.809 8.61111 161.281 8.37311C161.751 8.13411 162.281 8.01511 162.867 8.01511C163.775 8.01511 164.465 8.25311 164.935 8.73011ZM172.97 14.2501C173.381 13.6741 173.586 12.8991 173.586 11.9221C173.586 11.0911 173.394 10.4561 173.012 10.0181C172.632 9.58111 172.084 9.36211 171.376 9.36211C170.6 9.36211 170.008 9.65011 169.597 10.2261C169.189 10.8031 168.983 11.5791 168.983 12.5541C168.983 13.3971 169.174 14.0341 169.556 14.4671C169.939 14.8981 170.49 15.1151 171.209 15.1151C171.974 15.1151 172.561 14.8261 172.971 14.2501H172.97ZM169.133 15.9631C168.547 15.6421 168.091 15.1821 167.77 14.5831C167.45 13.9831 167.29 13.2921 167.29 12.5041C167.29 11.5941 167.458 10.8041 167.795 10.1271C168.134 9.45111 168.609 8.93011 169.225 8.56411C169.84 8.19811 170.551 8.01511 171.36 8.01511C172.157 8.01511 172.85 8.17811 173.435 8.50511C174.023 8.83311 174.477 9.29311 174.798 9.88511C175.12 10.4781 175.28 11.1751 175.28 11.9721C175.28 12.8811 175.112 13.6721 174.774 14.3421C174.435 15.0121 173.959 15.5311 173.344 15.8961C172.73 16.2621 172.013 16.4451 171.193 16.4451C170.407 16.4451 169.72 16.2841 169.133 15.9631ZM183.704 8.73011C184.174 9.20711 184.41 9.91011 184.41 10.8421C184.41 11.0641 184.404 11.2301 184.393 11.3411L184.061 15.6131C184.038 15.8681 183.946 16.0651 183.787 16.2041C183.627 16.3421 183.418 16.4121 183.163 16.4121C182.909 16.4121 182.71 16.3421 182.565 16.2041C182.421 16.0651 182.361 15.8681 182.382 15.6141L182.715 11.4241C182.725 11.3461 182.731 11.2301 182.731 11.0741C182.731 9.94411 182.189 9.37811 181.104 9.37811C180.417 9.37811 179.872 9.58311 179.467 9.99311C179.062 10.4031 178.834 10.9751 178.777 11.7061L178.462 15.6131C178.44 15.8681 178.348 16.0651 178.188 16.2041C178.028 16.3421 177.819 16.4121 177.564 16.4121C177.309 16.4121 177.113 16.3421 176.975 16.2041C176.836 16.0651 176.772 15.8681 176.784 15.6141L177.331 8.81411C177.343 8.58111 177.438 8.39411 177.614 8.25611C177.792 8.11711 178.002 8.04811 178.245 8.04811C178.478 8.04811 178.661 8.11511 178.795 8.24811C178.928 8.38111 178.988 8.56411 178.977 8.79611L178.927 9.37811C179.203 8.94611 179.578 8.61111 180.048 8.37311C180.518 8.13411 181.048 8.01511 181.635 8.01511C182.543 8.01511 183.233 8.25311 183.704 8.73011ZM192.165 14.2841C192.58 13.7291 192.787 12.9641 192.787 11.9891C192.787 11.1471 192.593 10.4981 192.206 10.0431C191.818 9.58911 191.266 9.36211 190.545 9.36211C189.815 9.36211 189.238 9.64211 188.817 10.2011C188.397 10.7611 188.186 11.5241 188.186 12.4871C188.186 13.3421 188.38 13.9931 188.768 14.4411C189.155 14.8911 189.708 15.1151 190.428 15.1151C191.171 15.1151 191.75 14.8381 192.165 14.2841ZM192.846 8.49711C193.372 8.81911 193.779 9.27611 194.066 9.86911C194.356 10.4621 194.499 11.1521 194.499 11.9391C194.499 12.8261 194.338 13.6101 194.017 14.2921C193.697 14.9741 193.244 15.5041 192.663 15.8801C192.081 16.2561 191.413 16.4441 190.662 16.4441C190.031 16.4441 189.484 16.3121 189.025 16.0461C188.566 15.7801 188.213 15.4031 187.97 14.9151L187.92 15.6131C187.909 15.8681 187.821 16.0651 187.654 16.2041C187.488 16.3421 187.282 16.4121 187.04 16.4121C186.795 16.4121 186.602 16.3421 186.458 16.2041C186.313 16.0651 186.248 15.8681 186.258 15.6141L187.089 5.28811C187.1 5.05511 187.194 4.86811 187.372 4.72311C187.549 4.57911 187.76 4.50611 188.003 4.50611C188.246 4.50611 188.438 4.57311 188.575 4.70611C188.715 4.83911 188.778 5.02211 188.768 5.25511L188.435 9.32811C188.711 8.91811 189.08 8.59811 189.54 8.36411C190 8.13111 190.5 8.01511 191.043 8.01511C191.719 8.01511 192.319 8.17611 192.846 8.49711ZM200.46 14.5831C200.859 14.1731 201.085 13.6461 201.14 13.0031L201.175 12.5381H200.709C199.889 12.5381 199.247 12.5821 198.782 12.6711C198.316 12.7591 197.985 12.9041 197.785 13.1021C197.585 13.3021 197.485 13.5801 197.485 13.9341C197.485 14.3221 197.621 14.6301 197.893 14.8571C198.165 15.0841 198.533 15.1971 198.998 15.1971C199.573 15.1971 200.061 14.9931 200.461 14.5831H200.46ZM202.903 10.8751C202.903 11.0851 202.897 11.2471 202.885 11.3571L202.555 15.6471C202.542 15.8911 202.462 16.0791 202.312 16.2131C202.162 16.3451 201.966 16.4131 201.722 16.4131C201.479 16.4131 201.285 16.3371 201.141 16.1871C200.998 16.0371 200.936 15.8461 200.959 15.6131L200.991 15.0481C200.759 15.5031 200.439 15.8481 200.028 16.0871C199.618 16.3251 199.141 16.4451 198.6 16.4451C197.79 16.4451 197.123 16.2261 196.598 15.7881C196.071 15.3501 195.809 14.7881 195.809 14.1011C195.809 13.4801 195.968 12.9891 196.291 12.6291C196.611 12.2691 197.123 12.0061 197.827 11.8391C198.53 11.6731 199.475 11.5891 200.659 11.5891H201.258L201.291 11.1741C201.335 10.5421 201.223 10.0801 200.959 9.78611C200.694 9.49211 200.261 9.34511 199.663 9.34511C198.931 9.34511 198.123 9.59011 197.237 10.0771C197.137 10.1321 197.027 10.1601 196.905 10.1601C196.739 10.1601 196.601 10.0991 196.489 9.97711C196.379 9.85511 196.323 9.71111 196.323 9.54511C196.323 9.27911 196.462 9.05711 196.739 8.88011C197.137 8.61411 197.61 8.40311 198.159 8.24711C198.707 8.09211 199.264 8.01511 199.829 8.01511C201.877 8.01511 202.903 8.96911 202.903 10.8751ZM211.68 8.73011C212.15 9.20711 212.386 9.91011 212.386 10.8421C212.386 11.0641 212.38 11.2301 212.369 11.3411L212.037 15.6131C212.014 15.8681 211.923 16.0651 211.762 16.2041C211.602 16.3421 211.395 16.4121 211.139 16.4121C210.885 16.4121 210.685 16.3421 210.542 16.2041C210.397 16.0651 210.336 15.8681 210.358 15.6141L210.691 11.4241C210.701 11.3461 210.707 11.2301 210.707 11.0741C210.707 9.94411 210.165 9.37811 209.079 9.37811C208.393 9.37811 207.847 9.58311 207.442 9.99311C207.039 10.4031 206.808 10.9751 206.753 11.7061L206.438 15.6131C206.416 15.8681 206.325 16.0651 206.164 16.2041C206.002 16.3421 205.795 16.4121 205.541 16.4121C205.286 16.4121 205.089 16.3421 204.951 16.2041C204.813 16.0651 204.748 15.8681 204.76 15.6141L205.308 8.81411C205.318 8.58111 205.413 8.39411 205.59 8.25611C205.768 8.11711 205.978 8.04811 206.221 8.04811C206.454 8.04811 206.637 8.11511 206.77 8.24811C206.903 8.38111 206.963 8.56411 206.954 8.79611L206.904 9.37811C207.179 8.94611 207.554 8.61111 208.024 8.37311C208.495 8.13411 209.024 8.01511 209.612 8.01511C210.52 8.01511 211.209 8.25311 211.68 8.73011ZM221.013 15.1481C221.146 15.2801 221.213 15.4411 221.213 15.6301C221.213 15.8301 221.126 16.0121 220.955 16.1791C220.782 16.3461 220.593 16.4291 220.382 16.4291C220.182 16.4291 220.005 16.3461 219.85 16.1791L216.178 12.5371L215.928 15.6301C215.906 15.8861 215.812 16.0801 215.647 16.2121C215.481 16.3461 215.282 16.4121 215.049 16.4121C214.805 16.4121 214.605 16.3401 214.451 16.1951C214.295 16.0511 214.229 15.8521 214.251 15.5971L215.066 5.30511C215.076 5.05011 215.17 4.85611 215.346 4.72211C215.524 4.59011 215.729 4.52211 215.962 4.52211C216.206 4.52211 216.4 4.59211 216.544 4.73111C216.687 4.87011 216.755 5.07111 216.742 5.33811L216.229 11.8381L220.149 8.33011C220.304 8.17611 220.481 8.09811 220.681 8.09811C220.881 8.09811 221.054 8.17311 221.205 8.32311C221.354 8.47311 221.428 8.64111 221.428 8.83011C221.428 9.02911 221.345 9.20611 221.179 9.36211L218.022 12.1391L221.013 15.1481ZM233.78 4.65111C233.872 4.74311 233.91 4.86911 233.894 5.03111L233.584 8.92911C233.561 9.28111 233.393 9.45811 233.078 9.45811C232.933 9.45811 232.822 9.41411 232.746 9.32611C232.67 9.23711 232.637 9.10611 232.654 8.92911L232.848 6.44511L231.712 8.36511C231.635 8.48811 231.558 8.57711 231.482 8.63011C231.405 8.68311 231.312 8.71011 231.205 8.71011C231.106 8.71011 231.023 8.68311 230.959 8.63011C230.893 8.57611 230.834 8.48811 230.781 8.36511L229.93 6.51411L229.735 8.92911C229.727 9.10611 229.677 9.23711 229.585 9.32611C229.493 9.41411 229.371 9.45811 229.218 9.45811C229.072 9.45811 228.961 9.41411 228.884 9.32611C228.808 9.23711 228.774 9.10611 228.782 8.92911L229.092 5.03011C229.107 4.87011 229.166 4.74311 229.27 4.65011C229.373 4.55911 229.493 4.51311 229.631 4.51311C229.831 4.51311 229.983 4.63211 230.091 4.86911L231.286 7.56011L232.906 4.87011C233.052 4.63211 233.229 4.51311 233.436 4.51311C233.573 4.51311 233.687 4.55911 233.779 4.65111H233.78ZM228.493 4.97311C228.493 5.28011 228.313 5.43311 227.954 5.43311H226.828L226.551 8.94011C226.544 9.10111 226.486 9.22811 226.374 9.32011C226.264 9.41211 226.13 9.45811 225.977 9.45811C225.824 9.45811 225.7 9.41211 225.604 9.32011C225.508 9.22811 225.464 9.10111 225.472 8.94011L225.758 5.43311H224.645C224.33 5.43311 224.174 5.29511 224.174 5.01911C224.174 4.71211 224.349 4.55911 224.702 4.55911H228.022C228.337 4.55911 228.493 4.69711 228.493 4.97311Z" fill="#AAAAAA"/>
</svg>
