<svg width="192" height="70" viewBox="0 0 192 70" fill="none" xmlns="http://www.w3.org/2000/svg">
<path fill-rule="evenodd" clip-rule="evenodd" d="M17.747 27.698V21.481H39.607L45.576 38.112L51.621 21.481H58.288L48.599 48.293H42.63L35.111 27.698H29.452V48.293H23.019V27.698H17.747Z" fill="#222222"/>
<path fill-rule="evenodd" clip-rule="evenodd" d="M6.97203 33.7601V26.8441C14.182 26.3771 14.027 34.1481 6.97203 33.7601ZM12.787 48.2931H20.151L13.949 37.5691C21.623 34.9261 19.53 21.3251 11.004 21.4811H0.228027V48.2931H6.97203V38.3461L12.787 48.2931ZM134.564 21.4801H142.161L149.37 48.2931H144.02L142.78 43.5531H133.79L132.548 48.2931H127.355L134.565 21.4811L134.564 21.4801ZM141.463 38.6561H135.107L138.285 26.7661L141.463 38.6561Z" fill="#222222"/>
<path fill-rule="evenodd" clip-rule="evenodd" d="M159.292 38.967V33.217H171.152V42.542C169.292 44.952 168.052 46.817 165.57 47.983C163.943 48.759 161.307 49.381 158.904 49.381C155.959 49.381 153.555 48.837 151.694 47.75C149.835 46.583 148.673 45.107 147.664 42.93C146.657 40.677 146.424 38.112 146.424 35.236C146.424 32.206 146.812 29.486 147.974 27.31C149.059 25.056 150.688 23.424 152.858 22.257C154.563 21.325 156.346 20.937 159.214 20.937C162.004 20.937 164.02 21.17 165.416 21.714C166.811 22.257 167.896 23.113 168.826 24.279C169.679 25.445 170.376 26.921 170.842 28.709L164.33 30.185C164.02 29.097 163.555 28.32 162.78 27.775C162.082 27.233 161.152 26.844 160.067 26.688C157.82 26.377 156.037 27.62 155.029 28.864C154.021 30.184 153.555 32.205 153.555 35.082C153.555 38.035 154.021 40.599 155.029 41.92C156.037 43.165 157.509 43.864 159.292 43.864C160.145 43.864 160.997 43.708 161.772 43.396C162.547 43.165 163.401 42.698 164.408 41.998V38.968H159.292V38.967ZM180.687 27.543H177.198V42.309H180.687C187.197 42.309 187.352 27.543 180.687 27.543ZM179.679 21.481H171.152V48.371H179.679C195.648 48.371 195.958 21.481 179.679 21.481Z" fill="#222222"/>
<mask id="mask0" mask-type="alpha" maskUnits="userSpaceOnUse" x="0" y="0" width="192" height="70">
<path d="M0 70H192V0H0V70Z" fill="white"/>
</mask>
<g mask="url(#mask0)">
<path fill-rule="evenodd" clip-rule="evenodd" d="M52.397 48.294H131.076V21.481H52.397V48.294Z" fill="white"/>
<path fill-rule="evenodd" clip-rule="evenodd" d="M51.622 48.293H131.851V21.48H51.62V48.293H51.622ZM53.172 46.893H130.378V22.958H53.173V46.895L53.172 46.893Z" fill="#222222"/>
<path fill-rule="evenodd" clip-rule="evenodd" d="M70.846 41.766H57.358V27.931H70.459V30.651H61.002V33.449H69.76V35.392H61.002V39.434H70.846V41.766ZM107.433 41.766H103.324L103.248 38.035C103.248 36.092 100.845 36.169 99.294 36.169H96.736V41.766H92.473V27.93H102.085C108.364 27.93 109.837 33.06 105.185 34.926C106.348 35.313 107.355 36.48 107.355 37.956L107.433 41.765V41.766ZM96.581 34.07H100.612C101.698 34.07 102.55 33.914 103.016 33.681C103.48 33.371 103.79 32.904 103.79 32.282C103.79 31.117 102.782 30.495 100.845 30.495H96.581V34.07ZM118.518 27.698C119.758 27.698 120.921 27.854 121.929 28.242C123.014 28.554 123.944 29.019 124.719 29.642C125.495 30.262 126.038 31.04 126.502 31.895C126.89 32.827 127.122 33.76 127.122 34.849C127.122 35.859 126.968 36.869 126.502 37.724C126.115 38.58 125.495 39.356 124.719 39.978C123.944 40.599 123.014 41.143 122.007 41.455C120.921 41.765 119.759 41.998 118.518 41.998C117.278 41.998 116.038 41.766 115.03 41.455C113.945 41.143 113.015 40.599 112.318 39.978C111.542 39.356 110.921 38.656 110.535 37.724C110.069 36.869 109.836 35.936 109.836 34.849C109.836 33.76 110.069 32.749 110.535 31.895C110.921 31.04 111.542 30.263 112.318 29.642C113.093 29.019 114.023 28.554 115.03 28.242C116.116 27.854 117.278 27.698 118.518 27.698ZM118.518 39.511C119.216 39.511 119.914 39.434 120.611 39.201C121.231 38.967 121.774 38.656 122.239 38.268C122.704 37.88 123.014 37.413 123.324 36.792C123.557 36.248 123.712 35.548 123.712 34.849C123.712 34.071 123.557 33.449 123.324 32.827C123.014 32.283 122.704 31.817 122.239 31.429C121.774 31.039 121.231 30.729 120.611 30.496C119.914 30.263 119.293 30.185 118.518 30.185C117.82 30.185 117.123 30.263 116.426 30.495C115.806 30.729 115.263 31.04 114.798 31.429C114.333 31.817 113.945 32.283 113.712 32.905C113.48 33.449 113.325 34.071 113.325 34.849C113.325 35.548 113.48 36.248 113.712 36.792C113.945 37.413 114.332 37.88 114.798 38.268C115.263 38.656 115.805 38.968 116.426 39.201C117.046 39.434 117.743 39.511 118.518 39.511ZM74.8 27.931H78.288V37.724C78.442 40.444 85.264 40.366 85.108 37.724V27.93H88.907L88.829 37.956C88.907 43.086 74.876 43.086 74.799 37.956V27.931H74.8ZM125.96 27.854C124.874 27.854 124.022 26.999 124.022 25.91C124.022 24.823 124.874 23.968 125.96 23.968C127.046 23.968 127.898 24.823 127.898 25.91C127.898 26.999 127.046 27.854 125.96 27.854ZM125.96 27.543C126.89 27.543 127.588 26.766 127.588 25.91C127.588 24.978 126.89 24.2 125.96 24.2C125.03 24.2 124.332 24.978 124.332 25.91C124.332 26.766 125.03 27.543 125.96 27.543ZM125.65 25.677H126.348C126.348 25.6 126.425 25.6 126.425 25.6C126.503 25.523 126.503 25.445 126.503 25.445C126.503 25.367 126.503 25.289 126.425 25.211C126.425 25.211 126.348 25.134 126.27 25.134H125.65V25.677ZM125.185 26.922V24.822H126.58L126.813 25.056C126.89 25.134 126.89 25.289 126.89 25.366C126.89 25.523 126.89 25.677 126.813 25.756C126.657 25.832 126.58 25.91 126.348 25.988C126.425 25.988 126.503 26.066 126.58 26.144C126.657 26.222 126.735 26.3 126.813 26.454L127.123 26.922H126.58L126.27 26.454C126.193 26.3 126.115 26.144 126.038 26.144C126.038 26.066 125.96 26.066 125.96 26.066C125.882 25.988 125.805 25.988 125.727 25.988H125.65V26.922H125.185Z" fill="#222222"/>
</g>
</svg>
