<svg width="90" height="58" viewBox="0 0 90 58" fill="none" xmlns="http://www.w3.org/2000/svg">
<path fill-rule="evenodd" clip-rule="evenodd" d="M81.704 0H8.036C7.73 0 7.423 0 7.116 0.002C6.858 0.004 6.6 0.006 6.341 0.014C5.777 0.029 5.21 0.062 4.653 0.164C4.088 0.266 3.563 0.434 3.048 0.697C2.545 0.956 2.083 1.294 1.682 1.698C1.282 2.103 0.945999 2.568 0.690999 3.078C0.428999 3.595 0.262999 4.126 0.161999 4.697C0.0619994 5.259 0.0279994 5.832 0.0129995 6.4C0.00599945 6.66 0.00299945 6.921 0.000999451 7.181V50.8C0.00299945 51.06 0.00599945 51.321 0.0129995 51.582C0.0279994 52.15 0.0619994 52.722 0.162999 53.284C0.262999 53.854 0.428999 54.386 0.690999 54.904C0.945999 55.413 1.282 55.879 1.682 56.282C2.083 56.687 2.545 57.025 3.048 57.284C3.562 57.548 4.088 57.715 4.653 57.818C5.21 57.918 5.777 57.952 6.341 57.968C6.6 57.974 6.858 57.977 7.116 57.978C7.423 57.981 7.73 57.981 8.036 57.981H81.704C82.01 57.981 82.318 57.981 82.624 57.979C82.882 57.977 83.14 57.974 83.4 57.968C83.962 57.952 84.53 57.918 85.087 57.818C85.652 57.715 86.178 57.548 86.691 57.284C87.196 57.025 87.656 56.687 88.058 56.282C88.457 55.879 88.792 55.412 89.05 54.903C89.311 54.386 89.478 53.855 89.577 53.283C89.678 52.723 89.711 52.15 89.727 51.583C89.734 51.321 89.737 51.06 89.738 50.8C89.74 50.49 89.74 50.18 89.74 49.87V8.112C89.74 7.802 89.74 7.492 89.738 7.182C89.736 6.922 89.734 6.662 89.727 6.401C89.711 5.833 89.678 5.26 89.577 4.698C89.477 4.128 89.311 3.596 89.05 3.078C88.792 2.568 88.457 2.104 88.058 1.699C87.656 1.295 87.196 0.957 86.691 0.698C86.178 0.434 85.651 0.267 85.087 0.164C84.53 0.064 83.962 0.03 83.4 0.014C83.14 0.007 82.882 0.004 82.624 0.003C82.318 0 82.01 0 81.704 0Z" fill="#222222"/>
<path fill-rule="evenodd" clip-rule="evenodd" d="M81.704 1.93311L82.611 1.93411C82.855 1.93611 83.101 1.93911 83.347 1.94611C83.777 1.95711 84.28 1.98111 84.747 2.06611C85.154 2.13911 85.496 2.25211 85.824 2.42011C86.147 2.58611 86.444 2.80311 86.702 3.06411C86.962 3.32711 87.178 3.62611 87.344 3.95611C87.51 4.28411 87.62 4.62611 87.694 5.04111C87.777 5.50811 87.8 6.01711 87.812 6.45311C87.819 6.69811 87.822 6.94511 87.823 7.19711C87.825 7.50211 87.825 7.80611 87.825 8.11111V49.8711C87.825 50.1751 87.825 50.4801 87.823 50.7911C87.822 51.0371 87.819 51.2831 87.813 51.5291C87.8 51.9651 87.777 52.4731 87.693 52.9451C87.62 53.3541 87.51 53.6971 87.343 54.0261C87.177 54.3561 86.962 54.6551 86.703 54.9161C86.443 55.1781 86.148 55.3951 85.821 55.5621C85.495 55.7301 85.154 55.8421 84.751 55.9151C84.273 56.0011 83.751 56.0251 83.357 56.0351C83.109 56.0411 82.862 56.0451 82.609 56.0451C82.307 56.0481 82.006 56.0481 81.704 56.0481H8.025C7.727 56.0481 7.428 56.0481 7.125 56.0461C6.878 56.0451 6.632 56.0421 6.392 56.0361C5.99 56.0251 5.465 56.0011 4.992 55.9161C4.585 55.8421 4.244 55.7301 3.915 55.5601C3.591 55.3941 3.295 55.1781 3.035 54.9151C2.777 54.6551 2.563 54.3561 2.397 54.0261C2.231 53.6971 2.119 53.3531 2.047 52.9401C1.962 52.4681 1.939 51.9631 1.927 51.5301C1.921 51.2821 1.917 51.0351 1.916 50.7881L1.915 50.0621V7.19411C1.917 6.9471 1.921 6.70011 1.927 6.45211C1.939 6.01911 1.962 5.51211 2.047 5.03711C2.119 4.62711 2.231 4.28411 2.397 3.95311C2.562 3.62611 2.777 3.32711 3.037 3.06511C3.295 2.80411 3.591 2.58711 3.917 2.42011C4.243 2.25211 4.585 2.14011 4.992 2.06611C5.46 1.98111 5.962 1.95711 6.394 1.94611C6.638 1.93911 6.884 1.93611 7.127 1.93411L8.037 1.93311H81.704Z" fill="#FEFEFE"/>
<path fill-rule="evenodd" clip-rule="evenodd" d="M23.59 19.5719C24.35 18.6119 24.866 17.3219 24.73 16.0049C23.616 16.0599 22.257 16.7459 21.47 17.7069C20.764 18.5299 20.139 19.8739 20.302 21.1359C21.552 21.2459 22.801 20.5059 23.589 19.5719H23.59ZM24.715 21.3829C22.9 21.2729 21.356 22.4229 20.489 22.4229C19.622 22.4229 18.295 21.4379 16.859 21.4639C14.989 21.4919 13.255 22.5579 12.307 24.2539C10.357 27.6479 11.792 32.6809 13.689 35.4439C14.61 36.8119 15.72 38.3169 17.183 38.2639C18.566 38.2089 19.107 37.3599 20.787 37.3599C22.467 37.3599 22.955 38.2629 24.417 38.2359C25.935 38.2089 26.884 36.8679 27.805 35.4999C28.861 33.9399 29.295 32.4359 29.321 32.3529C29.294 32.3259 26.396 31.2029 26.369 27.8389C26.341 25.0209 28.644 23.6809 28.752 23.5969C27.452 21.6569 25.42 21.4369 24.715 21.3829ZM38.35 28.4079H41.97C44.719 28.4079 46.283 26.9139 46.283 24.3259C46.283 21.7369 44.719 20.2579 41.985 20.2579H38.349V28.4079H38.35ZM42.817 17.5699C46.763 17.5699 49.511 20.3149 49.511 24.3109C49.511 28.3219 46.706 31.0809 42.718 31.0809H38.35V38.0929H35.193V17.5699H42.818H42.817ZM59.877 32.5179V31.3659L56.367 31.5929C54.395 31.7209 53.366 32.4609 53.366 33.7549C53.366 35.0069 54.437 35.8179 56.114 35.8179C58.257 35.8179 59.877 34.4379 59.877 32.5179ZM50.294 33.8409C50.294 31.2089 52.281 29.7009 55.944 29.4739L59.877 29.2319V28.0949C59.877 26.4309 58.792 25.5199 56.861 25.5199C55.268 25.5199 54.113 26.3449 53.874 27.6109H51.027C51.111 24.9509 53.591 23.0179 56.947 23.0179C60.553 23.0179 62.907 24.9229 62.907 27.8809V38.0929H59.989V35.6329H59.919C59.087 37.2399 57.255 38.2499 55.269 38.2499C52.338 38.2499 50.294 36.4859 50.294 33.8409ZM65.589 43.5829V41.1229C65.786 41.1509 66.265 41.1799 66.519 41.1799C67.914 41.1799 68.703 40.5829 69.182 39.0459L69.464 38.1359L64.124 23.2019H67.421L71.141 35.3189H71.211L74.931 23.2019H78.145L72.607 38.8899C71.338 42.4879 69.887 43.6689 66.815 43.6689C66.575 43.6689 65.8 43.6399 65.589 43.5829Z" fill="#222222"/>
</svg>
