<svg width="18" height="19" viewBox="0 0 18 19" fill="none" xmlns="http://www.w3.org/2000/svg">
<g clip-path="url(#clip0)">
<path d="M4.0299 17.7812H0.297321V7.26602H4.0299V17.7812ZM2.1616 5.83164C0.968302 5.83164 0 4.9668 0 3.92266C0 2.87852 0.968302 2.03125 2.1616 2.03125C3.35491 2.03125 4.32321 2.87852 4.32321 3.92266C4.32321 4.9668 3.35491 5.83164 2.1616 5.83164ZM18 17.7812H14.2754V12.6625C14.2754 11.4426 14.2473 9.87812 12.3348 9.87812C10.3942 9.87812 10.0969 11.2035 10.0969 12.5746V17.7812H6.36829V7.26602H9.9482V8.70039H10.0004C10.4986 7.87422 11.7161 7.00234 13.5321 7.00234C17.3089 7.00234 18.004 9.17852 18.004 12.0051V17.7812H18Z" fill="black"/>
</g>
<defs>
<clipPath id="clip0">
<rect width="18" height="18" fill="white" transform="translate(0 0.90625)"/>
</clipPath>
</defs>
</svg>
