<svg width="169" height="50" viewBox="0 0 169 50" fill="none" xmlns="http://www.w3.org/2000/svg">
<path d="M162.523 50H5.903C2.65 50 0 47.34 0 44.084V5.907C0 2.65 2.649 0 5.903 0H162.523C165.776 0 168.519 2.65 168.519 5.907V44.084C168.519 47.34 165.776 50 162.523 50Z" fill="#A6A6A6"/>
<path d="M167.31 44.085C167.31 46.73 165.17 48.873 162.524 48.873H5.904C3.258 48.873 1.111 46.73 1.111 44.085V5.90598C1.111 3.26298 3.258 1.11298 5.903 1.11298H162.523C165.171 1.11298 167.31 3.26298 167.31 5.90598V44.085Z" fill="black"/>
<path d="M37.609 24.73C37.573 20.701 40.903 18.741 41.055 18.65C39.169 15.896 36.245 15.52 35.218 15.49C32.763 15.231 30.381 16.961 29.131 16.961C27.855 16.961 25.929 15.515 23.853 15.557C21.181 15.599 18.683 17.147 17.312 19.552C14.483 24.456 16.592 31.662 19.302 35.626C20.658 37.567 22.242 39.735 24.316 39.659C26.344 39.575 27.102 38.364 29.55 38.364C31.975 38.364 32.687 39.659 34.802 39.61C36.979 39.575 38.349 37.66 39.657 35.701C41.224 33.476 41.853 31.285 41.878 31.172C41.827 31.155 37.65 29.559 37.608 24.73H37.609ZM33.614 12.883C34.705 11.516 35.452 9.658 35.244 7.771C33.666 7.841 31.691 8.865 30.554 10.201C29.547 11.38 28.649 13.31 28.88 15.124C30.654 15.256 32.475 14.228 33.613 12.883H33.614Z" fill="white"/>
<path d="M66.964 39.38H64.129L62.577 34.494H57.178L55.698 39.38H52.94L58.288 22.745H61.591L66.965 39.38H66.964ZM62.108 32.444L60.704 28.1C60.556 27.656 60.277 26.611 59.867 24.966H59.817C59.653 25.674 59.39 26.719 59.027 28.1L57.648 32.444H62.108ZM80.717 33.235C80.717 35.275 80.167 36.887 79.065 38.071C78.079 39.125 76.855 39.651 75.393 39.651C73.815 39.651 72.681 39.084 71.991 37.949H71.941V44.267H69.28V31.334C69.28 30.051 69.246 28.735 69.181 27.385H71.521L71.671 29.286H71.721C72.608 27.854 73.955 27.139 75.762 27.139C77.175 27.139 78.355 27.697 79.299 28.816C80.245 29.936 80.717 31.409 80.717 33.235ZM78.005 33.333C78.005 32.165 77.743 31.203 77.216 30.445C76.641 29.655 75.868 29.26 74.9 29.26C74.243 29.26 73.646 29.48 73.113 29.914C72.579 30.351 72.23 30.922 72.066 31.63C71.984 31.96 71.942 32.23 71.942 32.443V34.443C71.942 35.315 72.21 36.051 72.744 36.653C73.278 37.253 73.972 37.553 74.826 37.553C75.828 37.553 76.609 37.166 77.166 36.393C77.726 35.62 78.006 34.6 78.006 33.333H78.005ZM94.494 33.235C94.494 35.275 93.944 36.887 92.841 38.071C91.856 39.125 90.631 39.651 89.17 39.651C87.592 39.651 86.459 39.084 85.77 37.949H85.72V44.267H83.058V31.334C83.058 30.051 83.025 28.735 82.96 27.385H85.3L85.449 29.286H85.499C86.385 27.854 87.732 27.139 89.541 27.139C90.953 27.139 92.132 27.697 93.078 28.816C94.021 29.936 94.494 31.409 94.494 33.235ZM91.783 33.333C91.783 32.165 91.519 31.203 90.993 30.445C90.417 29.655 89.647 29.26 88.677 29.26C88.019 29.26 87.424 29.48 86.889 29.914C86.355 30.351 86.007 30.922 85.843 31.63C85.763 31.96 85.72 32.23 85.72 32.443V34.443C85.72 35.315 85.987 36.051 86.519 36.653C87.053 37.253 87.747 37.553 88.603 37.553C89.606 37.553 90.386 37.166 90.943 36.393C91.503 35.62 91.783 34.6 91.783 33.333ZM109.898 34.715C109.898 36.13 109.408 37.281 108.422 38.17C107.34 39.141 105.833 39.626 103.897 39.626C102.11 39.626 100.677 39.281 99.592 38.59L100.209 36.369C101.377 37.076 102.659 37.431 104.056 37.431C105.058 37.431 105.838 37.204 106.399 36.751C106.957 36.299 107.235 35.691 107.235 34.934C107.235 34.259 107.005 33.69 106.545 33.229C106.087 32.768 105.322 32.339 104.253 31.943C101.345 30.856 99.892 29.265 99.892 27.173C99.892 25.805 100.401 24.683 101.421 23.811C102.437 22.938 103.792 22.501 105.488 22.501C106.999 22.501 108.255 22.765 109.258 23.291L108.592 25.464C107.656 24.954 106.597 24.699 105.412 24.699C104.477 24.699 103.745 24.93 103.221 25.39C102.778 25.801 102.555 26.303 102.555 26.896C102.555 27.554 102.809 28.098 103.318 28.525C103.761 28.92 104.566 29.347 105.735 29.809C107.165 30.385 108.214 31.059 108.889 31.831C109.562 32.601 109.898 33.565 109.898 34.715ZM118.697 29.385H115.764V35.209C115.764 36.69 116.28 37.43 117.316 37.43C117.792 37.43 118.186 37.389 118.498 37.306L118.572 39.33C118.048 39.526 117.358 39.625 116.502 39.625C115.452 39.625 114.63 39.304 114.037 38.663C113.447 38.02 113.15 36.943 113.15 35.429V29.383H111.402V27.383H113.15V25.186L115.764 24.396V27.383H118.697V29.385ZM131.933 33.284C131.933 35.127 131.406 36.641 130.355 37.825C129.252 39.044 127.789 39.651 125.965 39.651C124.208 39.651 122.809 39.067 121.765 37.9C120.722 36.732 120.2 35.259 120.2 33.482C120.2 31.624 120.737 30.102 121.814 28.918C122.888 27.732 124.338 27.14 126.163 27.14C127.921 27.14 129.335 27.724 130.403 28.893C131.423 30.026 131.933 31.49 131.933 33.283V33.284ZM129.171 33.37C129.171 32.264 128.935 31.315 128.457 30.524C127.899 29.566 127.102 29.089 126.068 29.089C124.998 29.089 124.186 29.567 123.628 30.524C123.15 31.316 122.914 32.28 122.914 33.42C122.914 34.526 123.15 35.475 123.628 36.265C124.203 37.222 125.008 37.7 126.044 37.7C127.06 37.7 127.858 37.213 128.434 36.24C128.924 35.434 129.171 34.475 129.171 33.37ZM140.583 29.729C140.32 29.68 140.039 29.655 139.744 29.655C138.808 29.655 138.084 30.009 137.574 30.717C137.132 31.342 136.909 32.132 136.909 33.087V39.38H134.249L134.274 31.163C134.274 29.78 134.241 28.521 134.174 27.386H136.493L136.59 29.681H136.664C136.944 28.893 137.388 28.258 137.994 27.781C138.587 27.353 139.228 27.139 139.918 27.139C140.164 27.139 140.386 27.156 140.583 27.187V29.73V29.729ZM152.486 32.815C152.486 33.293 152.454 33.695 152.388 34.024H144.404C144.435 35.209 144.821 36.115 145.563 36.74C146.235 37.299 147.105 37.579 148.174 37.579C149.356 37.579 150.434 37.39 151.404 37.011L151.821 38.861C150.688 39.356 149.35 39.602 147.806 39.602C145.948 39.602 144.49 39.055 143.429 37.962C142.371 36.867 141.84 35.399 141.84 33.556C141.84 31.748 142.333 30.241 143.32 29.04C144.354 27.758 145.751 27.116 147.509 27.116C149.235 27.116 150.542 27.758 151.429 29.04C152.132 30.059 152.486 31.319 152.486 32.815ZM149.948 32.124C149.965 31.334 149.792 30.651 149.431 30.075C148.971 29.334 148.263 28.964 147.311 28.964C146.441 28.964 145.732 29.325 145.191 30.05C144.749 30.626 144.485 31.318 144.404 32.123H149.948V32.124Z" fill="white"/>
<path d="M61.228 12.511C61.228 13.982 60.788 15.09 59.908 15.834C59.092 16.52 57.934 16.864 56.433 16.864C55.689 16.864 55.053 16.831 54.52 16.766V8.72697C55.215 8.61497 55.964 8.55697 56.773 8.55697C58.203 8.55697 59.28 8.86897 60.006 9.49097C60.82 10.195 61.228 11.201 61.228 12.511ZM59.848 12.548C59.848 11.594 59.597 10.862 59.092 10.352C58.588 9.84397 57.852 9.58897 56.882 9.58897C56.47 9.58897 56.119 9.61597 55.828 9.67397V15.785C55.989 15.81 56.284 15.821 56.712 15.821C57.713 15.821 58.486 15.543 59.03 14.985C59.574 14.427 59.849 13.615 59.849 12.547L59.848 12.548ZM68.542 13.796C68.542 14.702 68.283 15.445 67.767 16.027C67.225 16.627 66.507 16.925 65.611 16.925C64.747 16.925 64.059 16.639 63.546 16.064C63.034 15.49 62.778 14.766 62.778 13.894C62.778 12.981 63.042 12.232 63.571 11.651C64.101 11.07 64.812 10.779 65.708 10.779C66.572 10.779 67.266 11.065 67.792 11.639C68.291 12.196 68.542 12.916 68.542 13.796ZM67.185 13.839C67.185 13.295 67.068 12.829 66.835 12.44C66.56 11.97 66.169 11.735 65.661 11.735C65.135 11.735 64.736 11.97 64.461 12.44C64.227 12.829 64.111 13.302 64.111 13.862C64.111 14.406 64.228 14.872 64.461 15.262C64.745 15.732 65.139 15.966 65.648 15.966C66.148 15.966 66.54 15.727 66.822 15.249C67.064 14.853 67.185 14.383 67.185 13.839ZM78.348 10.899L76.508 16.791H75.308L74.546 14.232C74.353 13.594 74.196 12.959 74.073 12.329H74.049C73.936 12.976 73.779 13.61 73.576 14.233L72.766 16.791H71.554L69.823 10.9H71.167L71.832 13.701C71.993 14.363 72.126 14.995 72.232 15.592H72.255C72.353 15.1 72.514 14.472 72.741 13.714L73.576 10.9H74.642L75.442 13.652C75.636 14.324 75.793 14.97 75.914 15.592H75.95C76.039 14.986 76.173 14.34 76.35 13.652L77.064 10.9H78.348V10.899ZM85.13 16.791H83.822V13.416C83.822 12.376 83.428 11.856 82.636 11.856C82.248 11.856 81.935 11.999 81.691 12.285C81.451 12.571 81.328 12.909 81.328 13.295V16.79H80.02V12.583C80.02 12.065 80.004 11.503 79.972 10.896H81.122L81.183 11.817H81.219C81.372 11.531 81.599 11.295 81.897 11.107C82.252 10.887 82.649 10.775 83.083 10.775C83.633 10.775 84.089 10.953 84.453 11.309C84.904 11.745 85.13 12.396 85.13 13.261V16.791ZM88.738 16.791H87.431V8.19497H88.738V16.791ZM96.44 13.796C96.44 14.702 96.181 15.445 95.665 16.027C95.123 16.627 94.404 16.925 93.509 16.925C92.644 16.925 91.956 16.639 91.444 16.064C90.932 15.49 90.676 14.766 90.676 13.894C90.676 12.981 90.94 12.232 91.469 11.651C91.999 11.07 92.709 10.779 93.605 10.779C94.47 10.779 95.163 11.065 95.69 11.639C96.189 12.196 96.44 12.916 96.44 13.796ZM95.082 13.839C95.082 13.295 94.964 12.829 94.731 12.44C94.457 11.97 94.066 11.735 93.559 11.735C93.032 11.735 92.632 11.97 92.359 12.44C92.124 12.829 92.009 13.302 92.009 13.862C92.009 14.406 92.126 14.872 92.359 15.262C92.642 15.732 93.037 15.966 93.546 15.966C94.046 15.966 94.436 15.727 94.718 15.249C94.962 14.853 95.082 14.383 95.082 13.839ZM102.771 16.791H101.596L101.499 16.113H101.463C101.061 16.653 100.488 16.925 99.744 16.925C99.188 16.925 98.739 16.746 98.401 16.391C98.094 16.069 97.941 15.668 97.941 15.191C97.941 14.471 98.24 13.923 98.843 13.543C99.444 13.163 100.291 12.976 101.38 12.985V12.875C101.38 12.099 100.974 11.711 100.158 11.711C99.578 11.711 99.066 11.857 98.624 12.147L98.358 11.287C98.905 10.949 99.58 10.779 100.377 10.779C101.915 10.779 102.687 11.591 102.687 13.216V15.386C102.687 15.975 102.715 16.444 102.771 16.791ZM101.413 14.766V13.857C99.97 13.832 99.248 14.229 99.248 15.045C99.248 15.353 99.331 15.582 99.499 15.736C99.668 15.89 99.883 15.966 100.139 15.966C100.426 15.966 100.694 15.875 100.939 15.694C101.184 15.511 101.336 15.28 101.392 14.996C101.405 14.932 101.412 14.855 101.412 14.766H101.413ZM110.205 16.791H109.044L108.983 15.845H108.946C108.576 16.565 107.944 16.925 107.056 16.925C106.347 16.925 105.757 16.646 105.289 16.089C104.821 15.531 104.587 14.807 104.587 13.919C104.587 12.965 104.841 12.193 105.35 11.603C105.843 11.053 106.447 10.778 107.166 10.778C107.956 10.778 108.509 11.044 108.824 11.578H108.849V8.19397H110.159V15.203C110.159 15.777 110.173 16.305 110.205 16.79V16.791ZM108.849 14.306V13.324C108.849 13.154 108.836 13.016 108.813 12.911C108.739 12.596 108.581 12.331 108.34 12.118C108.096 11.904 107.803 11.796 107.465 11.796C106.977 11.796 106.595 11.99 106.314 12.379C106.035 12.768 105.894 13.264 105.894 13.87C105.894 14.452 106.028 14.925 106.296 15.289C106.58 15.676 106.962 15.87 107.44 15.87C107.87 15.87 108.212 15.709 108.473 15.385C108.725 15.086 108.849 14.726 108.849 14.306ZM121.393 13.796C121.393 14.702 121.135 15.445 120.618 16.027C120.076 16.627 119.36 16.925 118.462 16.925C117.599 16.925 116.912 16.639 116.397 16.064C115.886 15.49 115.63 14.766 115.63 13.894C115.63 12.981 115.893 12.232 116.422 11.651C116.952 11.07 117.663 10.779 118.561 10.779C119.423 10.779 120.118 11.065 120.643 11.639C121.143 12.196 121.393 12.916 121.393 13.796ZM120.037 13.839C120.037 13.295 119.92 12.829 119.687 12.44C119.411 11.97 119.021 11.735 118.512 11.735C117.988 11.735 117.588 11.97 117.312 12.44C117.078 12.829 116.962 13.302 116.962 13.862C116.962 14.406 117.079 14.872 117.312 15.262C117.596 15.732 117.99 15.966 118.499 15.966C118.999 15.966 119.392 15.727 119.674 15.249C119.915 14.853 120.037 14.383 120.037 13.839ZM128.427 16.791H127.12V13.416C127.12 12.376 126.726 11.856 125.933 11.856C125.545 11.856 125.231 11.999 124.989 12.285C124.747 12.571 124.626 12.909 124.626 13.295V16.79H123.316V12.583C123.316 12.065 123.302 11.503 123.27 10.896H124.419L124.48 11.817H124.516C124.67 11.531 124.896 11.295 125.194 11.107C125.55 10.887 125.945 10.775 126.381 10.775C126.929 10.775 127.386 10.953 127.749 11.309C128.202 11.745 128.427 12.396 128.427 13.261V16.791ZM137.231 11.88H135.791V14.742C135.791 15.47 136.047 15.834 136.553 15.834C136.788 15.834 136.983 15.814 137.136 15.773L137.17 16.766C136.912 16.864 136.572 16.912 136.154 16.912C135.637 16.912 135.235 16.755 134.944 16.44C134.652 16.125 134.507 15.595 134.507 14.851V11.88H133.647V10.899H134.507V9.81897L135.789 9.43097V10.897H137.23V11.88H137.231ZM144.156 16.791H142.847V13.441C142.847 12.385 142.453 11.856 141.663 11.856C141.056 11.856 140.642 12.162 140.414 12.775C140.376 12.904 140.354 13.061 140.354 13.246V16.79H139.046V8.19497H140.353V11.746H140.378C140.79 11.1 141.381 10.777 142.146 10.777C142.687 10.777 143.136 10.955 143.491 11.311C143.935 11.755 144.157 12.415 144.157 13.287V16.791H144.156ZM151.301 13.566C151.301 13.801 151.283 13.999 151.252 14.16H147.329C147.346 14.742 147.533 15.186 147.897 15.494C148.229 15.769 148.657 15.906 149.181 15.906C149.761 15.906 150.291 15.814 150.768 15.627L150.972 16.537C150.414 16.78 149.758 16.901 148.998 16.901C148.086 16.901 147.368 16.633 146.849 16.095C146.327 15.557 146.069 14.836 146.069 13.931C146.069 13.043 146.31 12.303 146.796 11.713C147.302 11.083 147.988 10.767 148.853 10.767C149.699 10.767 150.342 11.083 150.776 11.713C151.127 12.213 151.301 12.831 151.301 13.566ZM150.052 13.228C150.062 12.838 149.976 12.504 149.799 12.221C149.572 11.857 149.226 11.675 148.758 11.675C148.331 11.675 147.983 11.853 147.717 12.209C147.5 12.493 147.371 12.831 147.329 13.228H150.052Z" fill="white"/>
</svg>
