<svg width="91" height="58" viewBox="0 0 91 58" fill="none" xmlns="http://www.w3.org/2000/svg">
<path d="M82.806 0.020043H7.212C6.95 0.023043 6.688 0.026043 6.426 0.033043C5.856 0.048043 5.279 0.081043 4.716 0.183043C4.143 0.285043 3.61 0.453043 3.09 0.716043C2.579 0.975043 2.111 1.31304 1.705 1.71604C1.3 2.12104 0.959 2.58604 0.699 3.09604C0.435 3.61304 0.266 4.14304 0.164 4.71404C0.062 5.27504 0.029 5.84804 0.014 6.41504C0.006 6.67604 0.003 6.93704 0.001 7.19704L0 8.12704V49.863L0.001 50.793C0.003 51.053 0.006 51.313 0.013 51.573C0.029 52.141 0.063 52.714 0.164 53.275C0.266 53.845 0.434 54.376 0.699 54.894C0.959 55.404 1.299 55.868 1.705 56.272C2.111 56.676 2.579 57.015 3.09 57.272C3.61 57.537 4.143 57.704 4.716 57.807C5.279 57.907 5.856 57.941 6.426 57.957C6.688 57.963 6.95 57.967 7.212 57.967C7.522 57.97 7.834 57.97 8.145 57.97H82.805C83.116 57.97 83.428 57.97 83.738 57.967C84 57.967 84.262 57.963 84.525 57.957C85.095 57.941 85.67 57.907 86.235 57.807C86.807 57.704 87.34 57.537 87.861 57.273C88.372 57.015 88.839 56.676 89.245 56.273C89.65 55.868 89.99 55.403 90.251 54.893C90.516 54.376 90.684 53.846 90.786 53.275C90.888 52.715 90.921 52.141 90.936 51.574C90.944 51.314 90.947 51.053 90.949 50.792C90.951 50.482 90.951 50.173 90.951 49.863V8.12604C90.951 7.81604 90.951 7.50604 90.949 7.19704C90.947 6.93704 90.944 6.67704 90.937 6.41504C90.921 5.84804 90.888 5.27504 90.787 4.71404C90.684 4.14404 90.517 3.61304 90.251 3.09504C89.991 2.58504 89.651 2.12104 89.245 1.71704C88.839 1.31304 88.372 0.975043 87.861 0.716043C87.341 0.452043 86.807 0.285043 86.235 0.183043C85.67 0.081043 85.095 0.048043 84.525 0.033043C84.262 0.026043 84 0.023043 83.738 0.021043C83.428 0.019043 83.116 0.019043 82.806 0.019043" fill="#222222"/>
<path d="M82.806 1.94995L83.725 1.95195C83.973 1.95395 84.222 1.95695 84.472 1.96395C84.907 1.97495 85.417 1.99895 85.892 2.08395C86.303 2.15695 86.65 2.26995 86.982 2.43795C87.309 2.60395 87.61 2.82095 87.872 3.08195C88.135 3.34395 88.354 3.64295 88.522 3.97295C88.69 4.30095 88.802 4.64295 88.877 5.05695C88.961 5.52495 88.985 6.03295 88.997 6.46895C89.004 6.71395 89.007 6.95995 89.007 7.21195C89.01 7.51695 89.01 7.82095 89.01 8.12595V49.8629C89.01 50.1679 89.01 50.4729 89.008 50.783C89.007 51.0289 89.004 51.2749 88.996 51.5219C88.985 51.957 88.961 52.465 88.876 52.937C88.802 53.345 88.69 53.6869 88.521 54.0169C88.353 54.347 88.135 54.6449 87.873 54.9059C87.609 55.1679 87.31 55.3849 86.978 55.5519C86.648 55.7199 86.303 55.8319 85.895 55.9049C85.41 55.9909 84.88 56.015 84.481 56.025C84.23 56.031 83.98 56.035 83.723 56.035C83.418 56.0379 83.111 56.0379 82.806 56.0379H8.13299C7.83099 56.0379 7.52799 56.0379 7.22099 56.0359C6.97099 56.035 6.72099 56.031 6.47899 56.026C6.06999 56.016 5.53899 55.9909 5.05899 55.9059C4.64699 55.8319 4.30199 55.7199 3.96799 55.5499C3.63899 55.3849 3.33999 55.1679 3.07699 54.9049C2.81499 54.645 2.59699 54.347 2.42899 54.0169C2.26099 53.688 2.14799 53.3449 2.07399 52.9319C1.98899 52.4599 1.96399 51.9539 1.95299 51.5219C1.94599 51.2749 1.94299 51.027 1.94199 50.782L1.94099 50.055V7.20995C1.94399 6.96195 1.94599 6.71495 1.95299 6.46795C1.96499 6.03495 1.98899 5.52895 2.07499 5.05295C2.14799 4.64495 2.26099 4.30095 2.42999 3.96995C2.59699 3.64295 2.81499 3.34395 3.07799 3.08295C3.33999 2.82095 3.63999 2.60495 3.97099 2.43695C4.30099 2.26995 4.64699 2.15695 5.05899 2.08395C5.53399 1.99895 6.04299 1.97495 6.47899 1.96395C6.72799 1.95695 6.97699 1.95395 7.22299 1.95195L8.14499 1.95095H82.805" fill="#FFFFFE"/>
<path d="M43.787 30.333V38.593H41.197V18.202H48.069C49.726 18.171 51.336 18.806 52.51 19.977C54.86 22.188 55.004 25.911 52.8 28.301L52.51 28.594C51.303 29.748 49.822 30.334 48.068 30.334H43.787V30.333ZM43.787 20.707V27.829H48.133C49.099 27.861 50.033 27.471 50.692 26.772C52.044 25.357 52.012 23.082 50.612 21.715C49.952 21.065 49.066 20.707 48.132 20.707H43.788H43.787ZM60.349 24.187C62.264 24.187 63.777 24.707 64.887 25.731C65.998 26.756 66.545 28.186 66.545 29.991V38.592H64.067V36.657H63.954C62.876 38.251 61.459 39.047 59.673 39.047C58.16 39.047 56.873 38.592 55.858 37.682C54.86 36.836 54.298 35.584 54.329 34.267C54.329 32.82 54.877 31.682 55.955 30.82C57.033 29.959 58.482 29.536 60.285 29.536C61.829 29.536 63.085 29.829 64.083 30.381V29.78C64.083 28.886 63.696 28.04 63.02 27.455C62.328 26.837 61.443 26.495 60.526 26.495C59.077 26.495 57.935 27.113 57.098 28.349L54.812 26.902C56.035 25.097 57.886 24.187 60.349 24.187ZM57 34.316C57 34.999 57.322 35.633 57.853 36.023C58.433 36.478 59.141 36.723 59.865 36.706C60.959 36.706 62.005 36.267 62.778 35.486C63.631 34.674 64.066 33.714 64.066 32.609C63.261 31.959 62.134 31.633 60.686 31.649C59.64 31.649 58.754 31.909 58.046 32.414C57.354 32.918 57 33.552 57 34.316ZM80.773 24.642L72.114 44.722H69.442L72.661 37.698L66.98 24.642H69.796L73.9 34.657H73.949L77.956 24.642H80.773Z" fill="#5F6368"/>
<path d="M33.31 28.5442C33.31 27.7472 33.246 26.9512 33.117 26.1702H22.19V30.6742H28.451C28.193 32.1212 27.357 33.4222 26.133 34.2342V37.1612H29.867C32.057 35.1292 33.312 32.1212 33.312 28.5442H33.31Z" fill="#4285F4"/>
<path d="M22.19 39.9901C25.311 39.9901 27.951 38.9501 29.866 37.1611L26.132 34.2351C25.086 34.9501 23.75 35.3561 22.189 35.3561C19.163 35.3561 16.604 33.2921 15.687 30.5281H11.84V33.5521C13.804 37.5021 17.811 39.9901 22.19 39.9901Z" fill="#34A853"/>
<path d="M15.687 30.5282C15.204 29.0812 15.204 27.5032 15.687 26.0402V23.0322H11.84C10.182 26.3322 10.182 30.2352 11.84 33.5352L15.687 30.5282Z" fill="#FBBC04"/>
<path d="M22.19 21.2111C23.847 21.1791 25.44 21.8131 26.631 22.9671L29.947 19.6181C27.838 17.6341 25.07 16.5451 22.189 16.5781C17.811 16.5781 13.804 19.0811 11.84 23.0321L15.687 26.0561C16.604 23.2761 19.163 21.2111 22.189 21.2111H22.19Z" fill="#EA4335"/>
</svg>
