<svg width="176" height="60" viewBox="0 0 176 60" fill="none" xmlns="http://www.w3.org/2000/svg">
<path fill-rule="evenodd" clip-rule="evenodd" d="M71.775 0.90625L88.522 38.2152L19.903 59.2923L0 4.96325L71.775 0.90625ZM45.018 20.3622C40.552 22.5502 38.253 26.3202 38.612 31.3783C38.964 36.3532 41.748 39.5413 46.378 41.2233C50.108 42.5773 53.936 42.7612 57.817 42.2093C58.867 42.0592 59.896 41.7743 60.883 41.5283L61.47 41.3862V36.0083C58.772 36.2663 56.321 36.7833 53.899 36.6673C50.38 36.4993 48.065 34.0272 47.89 30.8512C47.637 26.2412 51.119 23.4342 56.23 24.2372C57.585 24.4492 58.904 24.8923 60.298 25.2903L60.9 25.4562V19.4373C55.407 17.8533 50.079 17.8822 45.018 20.3622ZM103.115 33.6403C103.565 33.6403 103.995 33.7022 104.408 33.8262C104.818 33.9502 105.18 34.2022 105.49 34.5822L104.583 35.4092C104.443 35.1922 104.245 35.0173 103.989 34.8853C103.732 34.7533 103.441 34.6872 103.115 34.6872C102.805 34.6872 102.547 34.7272 102.342 34.8092C102.136 34.8913 101.971 34.9963 101.847 35.1242C101.723 35.2522 101.635 35.3903 101.585 35.5373C101.534 35.6852 101.51 35.8213 101.51 35.9453C101.51 36.2943 101.609 36.5622 101.812 36.7482C102.014 36.9342 102.264 37.0863 102.562 37.2023C102.861 37.3193 103.187 37.4222 103.541 37.5163C103.894 37.6103 104.22 37.7402 104.518 37.9062C104.817 38.0742 105.068 38.2992 105.268 38.5822C105.472 38.8652 105.572 39.2552 105.572 39.7523C105.572 40.1483 105.496 40.5052 105.346 40.8223C105.193 41.1413 104.99 41.4093 104.734 41.6263C104.478 41.8442 104.176 42.0112 103.826 42.1263C103.476 42.2443 103.103 42.3022 102.709 42.3022C102.179 42.3022 101.679 42.2083 101.207 42.0223C100.732 41.8363 100.356 41.5493 100.077 41.1613L100.997 40.3693C101.199 40.6723 101.457 40.8952 101.771 41.0382C102.086 41.1823 102.41 41.2542 102.743 41.2542C102.93 41.2542 103.119 41.2242 103.313 41.1662C103.508 41.1082 103.683 41.0213 103.843 40.9053C104.002 40.7882 104.133 40.6442 104.233 40.4743C104.333 40.3032 104.385 40.1042 104.385 39.8802C104.385 39.5622 104.283 39.3192 104.082 39.1522C103.881 38.9862 103.63 38.8462 103.331 38.7323C103.031 38.6213 102.707 38.5122 102.353 38.4072C102 38.3032 101.673 38.1572 101.375 37.9712C101.075 37.7852 100.825 37.5342 100.625 37.2202C100.422 36.9053 100.322 36.4803 100.322 35.9453C100.322 35.7043 100.374 35.4482 100.478 35.1772C100.584 34.9053 100.748 34.6573 100.974 34.4313C101.199 34.2063 101.488 34.0182 101.841 33.8672C102.193 33.7152 102.619 33.6403 103.115 33.6403ZM162.54 36.4342C163.029 36.4342 163.442 36.5203 163.779 36.6903C164.117 36.8602 164.394 37.0842 164.612 37.3592C164.83 37.6353 164.986 37.9462 165.084 38.2912C165.18 38.6362 165.229 38.9883 165.229 39.3452V39.7173H160.804C160.804 39.9573 160.857 40.1772 160.963 40.3753C161.066 40.5733 161.205 40.7422 161.375 40.8812C161.547 41.0212 161.744 41.1302 161.968 41.2082C162.194 41.2852 162.427 41.3242 162.668 41.3242C162.994 41.3242 163.277 41.2483 163.517 41.0973C163.757 40.9453 163.979 40.7463 164.181 40.4972L164.971 41.1032C164.39 41.8562 163.576 42.2323 162.528 42.2323C162.093 42.2323 161.698 42.1582 161.346 42.0112C160.993 41.8633 160.694 41.6602 160.45 41.4002C160.205 41.1403 160.017 40.8333 159.884 40.4803C159.754 40.1273 159.687 39.7452 159.687 39.3332C159.687 38.9222 159.759 38.5402 159.902 38.1862C160.047 37.8332 160.244 37.5262 160.496 37.2663C160.748 37.0063 161.049 36.8032 161.398 36.6553C161.748 36.5083 162.128 36.4342 162.54 36.4342ZM150.246 36.4342C150.734 36.4342 151.148 36.5203 151.485 36.6903C151.823 36.8602 152.1 37.0842 152.318 37.3592C152.535 37.6353 152.692 37.9462 152.788 38.2912C152.886 38.6362 152.935 38.9883 152.935 39.3452V39.7173H148.51C148.51 39.9573 148.562 40.1772 148.668 40.3753C148.772 40.5733 148.91 40.7422 149.081 40.8812C149.251 41.0212 149.449 41.1302 149.674 41.2082C149.9 41.2852 150.132 41.3242 150.373 41.3242C150.699 41.3242 150.982 41.2483 151.223 41.0973C151.463 40.9453 151.685 40.7463 151.886 40.4972L152.678 41.1032C152.096 41.8562 151.281 42.2323 150.234 42.2323C149.798 42.2323 149.404 42.1582 149.052 42.0112C148.699 41.8633 148.4 41.6602 148.156 41.4002C147.911 41.1403 147.722 40.8333 147.59 40.4803C147.459 40.1273 147.392 39.7452 147.392 39.3332C147.392 38.9222 147.464 38.5402 147.608 38.1862C147.752 37.8332 147.948 37.5262 148.202 37.2663C148.454 37.0063 148.755 36.8032 149.104 36.6553C149.453 36.5083 149.834 36.4342 150.246 36.4342ZM134.492 36.4342C134.981 36.4342 135.394 36.5203 135.732 36.6903C136.07 36.8602 136.347 37.0842 136.564 37.3592C136.782 37.6353 136.939 37.9462 137.037 38.2912C137.132 38.6362 137.181 38.9883 137.181 39.3452V39.7173H132.757C132.757 39.9573 132.81 40.1772 132.915 40.3753C133.019 40.5733 133.157 40.7422 133.328 40.8812C133.498 41.0212 133.697 41.1302 133.921 41.2082C134.146 41.2852 134.379 41.3242 134.621 41.3242C134.947 41.3242 135.23 41.2483 135.47 41.0973C135.71 40.9453 135.93 40.7463 136.134 40.4972L136.924 41.1032C136.343 41.8562 135.529 42.2323 134.48 42.2323C134.045 42.2323 133.652 42.1582 133.298 42.0112C132.945 41.8633 132.646 41.6602 132.402 41.4002C132.158 41.1403 131.969 40.8333 131.837 40.4803C131.706 40.1273 131.64 39.7452 131.64 39.3332C131.64 38.9222 131.71 38.5402 131.855 38.1862C131.999 37.8332 132.197 37.5262 132.449 37.2663C132.701 37.0063 133.001 36.8032 133.351 36.6553C133.701 36.5083 134.081 36.4342 134.491 36.4342H134.492ZM128.974 36.4453C129.377 36.4453 129.764 36.5173 130.132 36.6613C130.502 36.8043 130.822 37.0233 131.093 37.3182L130.301 38.0402C130.107 37.8382 129.904 37.6852 129.691 37.5802C129.476 37.4762 129.222 37.4232 128.927 37.4232C128.64 37.4232 128.39 37.4762 128.177 37.5802C127.962 37.6852 127.784 37.8302 127.64 38.0112C127.497 38.1932 127.388 38.4033 127.315 38.6413C127.24 38.8763 127.205 39.1232 127.205 39.3792C127.205 39.6353 127.246 39.8792 127.331 40.1073C127.417 40.3372 127.537 40.5373 127.693 40.7072C127.848 40.8772 128.034 41.0112 128.251 41.1082C128.469 41.2052 128.714 41.2533 128.986 41.2533C129.28 41.2533 129.532 41.2012 129.741 41.0962C129.951 40.9922 130.146 40.8382 130.323 40.6362L131.07 41.3812C130.798 41.6842 130.482 41.9022 130.12 42.0342C129.76 42.1652 129.377 42.2313 128.974 42.2313C128.546 42.2313 128.156 42.1623 127.804 42.0223C127.45 41.8823 127.146 41.6862 126.89 41.4342C126.634 41.1823 126.435 40.8792 126.296 40.5262C126.156 40.1732 126.086 39.7832 126.086 39.3563C126.086 38.9293 126.156 38.5372 126.296 38.1802C126.436 37.8232 126.632 37.5163 126.884 37.2603C127.136 37.0042 127.439 36.8043 127.792 36.6613C128.145 36.5173 128.538 36.4453 128.974 36.4453ZM109.484 36.4342C109.972 36.4342 110.386 36.5203 110.724 36.6903C111.062 36.8602 111.339 37.0842 111.556 37.3592C111.773 37.6353 111.931 37.9462 112.028 38.2912C112.124 38.6362 112.173 38.9883 112.173 39.3452V39.7173H107.749C107.749 39.9573 107.801 40.1772 107.906 40.3753C108.011 40.5733 108.148 40.7422 108.32 40.8812C108.49 41.0212 108.688 41.1302 108.913 41.2082C109.138 41.2852 109.37 41.3242 109.613 41.3242C109.938 41.3242 110.221 41.2483 110.463 41.0973C110.703 40.9453 110.923 40.7463 111.125 40.4972L111.917 41.1032C111.335 41.8562 110.52 42.2323 109.472 42.2323C109.036 42.2323 108.644 42.1582 108.29 42.0112C107.937 41.8633 107.638 41.6602 107.394 41.4002C107.15 41.1403 106.96 40.8333 106.829 40.4803C106.697 40.1273 106.631 39.7452 106.631 39.3332C106.631 38.9222 106.702 38.5402 106.847 38.1862C106.99 37.8332 107.188 37.5262 107.441 37.2663C107.693 37.0063 107.993 36.8032 108.343 36.6553C108.693 36.5083 109.073 36.4342 109.484 36.4342ZM15.831 19.1623L14.174 19.1663V42.1603H22.839V35.3283L24.409 35.2702C26.434 35.1902 28.182 35.0732 29.639 34.6273C31.745 33.9813 33.177 33.1582 34.765 31.7313C38.358 28.4993 37.468 22.9083 33.201 20.6513C31.81 19.9163 30.187 19.2913 28.646 19.2323C26.018 19.1313 23.386 19.1223 20.709 19.1343L15.831 19.1623ZM154.74 36.5732L156.393 40.7993L157.977 36.5732H159.094L156.928 42.0933H155.776L153.529 36.5732H154.739H154.74ZM118.287 36.5732L119.94 40.7993L121.524 36.5732H122.641L120.475 42.0933H119.323L117.076 36.5732H118.286H118.287ZM116.157 36.4333C116.327 36.4333 116.483 36.4562 116.621 36.5033L116.575 37.6333C116.49 37.6093 116.405 37.5902 116.319 37.5742C116.234 37.5592 116.149 37.5513 116.063 37.5513C115.551 37.5513 115.159 37.6953 114.887 37.9823C114.617 38.2692 114.479 38.7153 114.479 39.3223V42.0923H113.432V36.5732H114.479V37.4232H114.502C114.573 37.2762 114.666 37.1413 114.782 37.0213C114.899 36.9013 115.029 36.7982 115.172 36.7132C115.316 36.6273 115.473 36.5592 115.644 36.5093C115.815 36.4593 115.985 36.4333 116.157 36.4333ZM167.616 33.2902V42.0923H166.569V33.2902H167.616ZM143.062 33.8493V41.0443H146.846V42.0923H141.944V33.8493H143.062ZM124.69 36.5732V42.0923H123.642V36.5732H124.69ZM175.988 33.8493V42.0923H174.87V35.1302L173.356 36.5272L172.705 35.7472L174.999 33.8493H175.988ZM74.145 19.0152H65.346V42.0052H74.145V19.0152ZM109.46 37.2723C109.204 37.2723 108.97 37.3213 108.755 37.4183C108.542 37.5153 108.362 37.6413 108.215 37.7962C108.067 37.9522 107.952 38.1242 107.87 38.3153C107.79 38.5042 107.75 38.6922 107.75 38.8792H111.056C111.048 38.6462 111.011 38.4333 110.946 38.2393C110.878 38.0452 110.78 37.8763 110.648 37.7323C110.516 37.5882 110.351 37.4762 110.154 37.3952C109.954 37.3132 109.724 37.2723 109.46 37.2723ZM162.516 37.2723C162.259 37.2723 162.025 37.3213 161.812 37.4183C161.598 37.5153 161.418 37.6413 161.271 37.7962C161.123 37.9522 161.008 38.1242 160.927 38.3153C160.845 38.5042 160.804 38.6922 160.804 38.8792H164.111C164.103 38.6462 164.066 38.4333 164.001 38.2393C163.935 38.0452 163.836 37.8763 163.704 37.7323C163.572 37.5882 163.407 37.4762 163.209 37.3952C163.011 37.3132 162.779 37.2723 162.516 37.2723ZM150.222 37.2723C149.965 37.2723 149.73 37.3213 149.517 37.4183C149.304 37.5153 149.123 37.6413 148.976 37.7962C148.828 37.9522 148.714 38.1242 148.632 38.3153C148.55 38.5042 148.51 38.6922 148.51 38.8792H151.817C151.809 38.6462 151.772 38.4333 151.707 38.2393C151.64 38.0452 151.541 37.8763 151.41 37.7323C151.277 37.5882 151.113 37.4762 150.915 37.3952C150.715 37.3132 150.485 37.2723 150.222 37.2723ZM134.468 37.2723C134.212 37.2723 133.978 37.3213 133.764 37.4183C133.55 37.5153 133.371 37.6413 133.223 37.7962C133.076 37.9522 132.96 38.1242 132.879 38.3153C132.798 38.5042 132.757 38.6922 132.757 38.8792H136.064C136.056 38.6462 136.019 38.4333 135.953 38.2393C135.887 38.0452 135.789 37.8763 135.656 37.7323C135.525 37.5882 135.359 37.4762 135.162 37.3952C134.962 37.3132 134.732 37.2723 134.468 37.2723ZM124.166 33.8262C124.374 33.8262 124.555 33.9022 124.707 34.0532C124.858 34.2043 124.933 34.3843 124.933 34.5942C124.933 34.8032 124.858 34.9842 124.707 35.1353C124.555 35.2873 124.374 35.3633 124.166 35.3633C123.956 35.3633 123.775 35.2873 123.624 35.1353C123.472 34.9842 123.397 34.8032 123.397 34.5942C123.397 34.3843 123.472 34.2043 123.624 34.0532C123.775 33.9022 123.956 33.8262 124.166 33.8262ZM27.725 25.2192C28.265 25.9653 28.33 27.5772 27.885 28.4112C27.029 30.0182 25.444 30.1173 23.733 30.1003L22.905 30.0893V24.0233C24.785 23.6632 26.618 23.6903 27.725 25.2192ZM118.216 18.7862C118.666 18.7862 119.097 18.8482 119.508 18.9722C119.919 19.0963 120.281 19.3483 120.591 19.7283L119.683 20.5553C119.543 20.3383 119.345 20.1632 119.089 20.0312C118.833 19.8993 118.542 19.8333 118.216 19.8333C117.906 19.8333 117.648 19.8743 117.442 19.9552C117.236 20.0373 117.072 20.1423 116.947 20.2703C116.823 20.3983 116.737 20.5363 116.685 20.6833C116.635 20.8313 116.609 20.9672 116.609 21.0912C116.609 21.4412 116.71 21.7083 116.911 21.8943C117.114 22.0803 117.364 22.2323 117.663 22.3482C117.961 22.4653 118.287 22.5693 118.641 22.6623C118.993 22.7563 119.321 22.8862 119.618 23.0532C119.918 23.2202 120.168 23.4453 120.369 23.7283C120.572 24.0112 120.672 24.4013 120.672 24.8983C120.672 25.2943 120.597 25.6512 120.445 25.9692C120.295 26.2873 120.09 26.5553 119.835 26.7722C119.577 26.9902 119.275 27.1573 118.926 27.2733C118.576 27.3903 118.204 27.4482 117.808 27.4482C117.281 27.4482 116.78 27.3542 116.306 27.1682C115.833 26.9822 115.456 26.6952 115.177 26.3083L116.097 25.5152C116.298 25.8182 116.557 26.0413 116.87 26.1852C117.185 26.3282 117.51 26.4002 117.843 26.4002C118.03 26.4002 118.22 26.3713 118.413 26.3123C118.608 26.2542 118.785 26.1672 118.943 26.0522C119.103 25.9342 119.233 25.7903 119.333 25.6203C119.435 25.4503 119.485 25.2513 119.485 25.0263C119.485 24.7083 119.385 24.4662 119.182 24.2983C118.98 24.1322 118.73 23.9923 118.432 23.8792C118.132 23.7673 117.806 23.6593 117.452 23.5532C117.1 23.4492 116.774 23.3033 116.475 23.1173C116.176 22.9312 115.926 22.6803 115.725 22.3673C115.523 22.0513 115.421 21.6272 115.421 21.0912C115.421 20.8512 115.474 20.5942 115.578 20.3232C115.683 20.0513 115.849 19.8032 116.074 19.5772C116.298 19.3522 116.587 19.1642 116.941 19.0133C117.294 18.8612 117.719 18.7862 118.216 18.7862ZM111.743 18.7862C112.193 18.7862 112.623 18.8482 113.034 18.9722C113.446 19.0963 113.807 19.3483 114.118 19.7283L113.211 20.5553C113.07 20.3383 112.873 20.1632 112.617 20.0312C112.359 19.8993 112.068 19.8333 111.743 19.8333C111.433 19.8333 111.174 19.8743 110.969 19.9552C110.763 20.0373 110.598 20.1423 110.475 20.2703C110.35 20.3983 110.263 20.5363 110.213 20.6833C110.162 20.8313 110.137 20.9672 110.137 21.0912C110.137 21.4412 110.237 21.7083 110.439 21.8943C110.641 22.0803 110.891 22.2323 111.189 22.3482C111.488 22.4653 111.814 22.5693 112.168 22.6623C112.52 22.7563 112.848 22.8862 113.145 23.0532C113.445 23.2202 113.695 23.4453 113.895 23.7283C114.1 24.0112 114.198 24.4013 114.198 24.8983C114.198 25.2943 114.124 25.6512 113.973 25.9692C113.82 26.2873 113.617 26.5553 113.361 26.7722C113.104 26.9902 112.802 27.1573 112.452 27.2733C112.103 27.3903 111.731 27.4482 111.335 27.4482C110.808 27.4482 110.307 27.3542 109.834 27.1682C109.359 26.9822 108.984 26.6952 108.704 26.3083L109.624 25.5152C109.826 25.8182 110.084 26.0413 110.397 26.1852C110.713 26.3282 111.037 26.4002 111.371 26.4002C111.557 26.4002 111.747 26.3713 111.941 26.3123C112.135 26.2542 112.311 26.1672 112.471 26.0522C112.629 25.9342 112.759 25.7903 112.861 25.6203C112.961 25.4503 113.011 25.2513 113.011 25.0263C113.011 24.7083 112.911 24.4662 112.709 24.2983C112.507 24.1322 112.257 23.9923 111.959 23.8792C111.659 23.7673 111.333 23.6593 110.979 23.5532C110.626 23.4492 110.301 23.3033 110.001 23.1173C109.702 22.9312 109.452 22.6803 109.251 22.3673C109.049 22.0513 108.948 21.6272 108.948 21.0912C108.948 20.8512 109.001 20.5942 109.105 20.3232C109.21 20.0513 109.375 19.8032 109.601 19.5772C109.826 19.3522 110.115 19.1642 110.469 19.0133C110.821 18.8612 111.246 18.7862 111.743 18.7862ZM129.346 18.7862C129.89 18.7862 130.423 18.8913 130.947 19.1012C131.471 19.3102 131.9 19.6312 132.234 20.0672L131.302 20.7773C131.07 20.4743 130.775 20.2423 130.417 20.0793C130.06 19.9163 129.691 19.8342 129.312 19.8342C128.845 19.8342 128.424 19.9223 128.048 20.0963C127.671 20.2712 127.349 20.5093 127.081 20.8123C126.814 21.1152 126.607 21.4702 126.458 21.8783C126.312 22.2852 126.238 22.7213 126.238 23.1873C126.238 23.6222 126.308 24.0333 126.448 24.4223C126.588 24.8103 126.788 25.1513 127.052 25.4463C127.316 25.7413 127.638 25.9743 128.019 26.1453C128.4 26.3153 128.829 26.4013 129.312 26.4013C129.784 26.4013 130.2 26.3043 130.557 26.1103C130.913 25.9163 131.217 25.6443 131.465 25.2952L132.407 26.0053L132.311 26.1252C132.252 26.1943 132.176 26.2762 132.082 26.3722C131.927 26.5312 131.722 26.6903 131.465 26.8493C131.208 27.0083 130.9 27.1482 130.539 27.2682C130.179 27.3883 129.761 27.4482 129.289 27.4482C128.636 27.4482 128.049 27.3242 127.525 27.0763C127 26.8283 126.555 26.5022 126.185 26.0982C125.816 25.6943 125.535 25.2382 125.341 24.7302C125.147 24.2222 125.051 23.7073 125.051 23.1873C125.051 22.5513 125.155 21.9633 125.365 21.4233C125.573 20.8832 125.866 20.4183 126.243 20.0263C126.62 19.6343 127.073 19.3302 127.6 19.1122C128.127 18.8953 128.71 18.7862 129.346 18.7862ZM145.728 20.1712V21.7213H147.23V22.6283H145.728V25.1313C145.728 25.2863 145.732 25.4412 145.74 25.5912C145.747 25.7422 145.776 25.8783 145.827 25.9993C145.876 26.1193 145.955 26.2163 146.06 26.2903C146.164 26.3633 146.318 26.4002 146.519 26.4002C146.643 26.4002 146.771 26.3883 146.904 26.3652C147.035 26.3422 147.156 26.2992 147.264 26.2372V27.1922C147.14 27.2622 146.979 27.3102 146.781 27.3372C146.584 27.3643 146.429 27.3783 146.322 27.3783C145.918 27.3783 145.605 27.3223 145.384 27.2092C145.163 27.0972 145 26.9513 144.895 26.7733C144.791 26.5942 144.728 26.3943 144.709 26.1733C144.689 25.9533 144.679 25.7292 144.679 25.5033V22.6283H143.468V21.7202H144.679V20.1712H145.728ZM170.048 18.4373V27.2383H169V26.4482H168.978C168.775 26.7423 168.497 26.9712 168.145 27.1332C167.791 27.2962 167.429 27.3783 167.056 27.3783C166.629 27.3783 166.244 27.3043 165.898 27.1583C165.552 27.0093 165.257 26.8043 165.013 26.5403C164.769 26.2763 164.58 25.9703 164.449 25.6203C164.316 25.2712 164.25 24.8912 164.25 24.4802C164.25 24.0682 164.316 23.6863 164.449 23.3323C164.58 22.9792 164.769 22.6723 165.013 22.4132C165.257 22.1532 165.552 21.9493 165.898 21.8013C166.244 21.6543 166.629 21.5812 167.056 21.5812C167.453 21.5812 167.825 21.6642 168.174 21.8312C168.523 21.9972 168.79 22.2242 168.978 22.5112H169V18.4373H170.048ZM160.572 21.5802C161.06 21.5802 161.474 21.6663 161.812 21.8363C162.15 22.0072 162.427 22.2303 162.644 22.5063C162.861 22.7812 163.019 23.0923 163.116 23.4373C163.212 23.7822 163.261 24.1342 163.261 24.4912V24.8633H158.837C158.837 25.1042 158.889 25.3232 158.994 25.5212C159.099 25.7192 159.236 25.8883 159.408 26.0273C159.578 26.1672 159.776 26.2773 160.001 26.3542C160.226 26.4312 160.458 26.4702 160.7 26.4702C161.026 26.4702 161.309 26.3942 161.55 26.2432C161.79 26.0912 162.011 25.8932 162.213 25.6432L163.005 26.2493C162.423 27.0023 161.608 27.3792 160.56 27.3792C160.124 27.3792 159.732 27.3042 159.378 27.1572C159.025 27.0092 158.726 26.8073 158.482 26.5473C158.238 26.2873 158.048 25.9792 157.917 25.6273C157.785 25.2733 157.719 24.8913 157.719 24.4792C157.719 24.0693 157.79 23.6863 157.935 23.3323C158.078 22.9792 158.276 22.6723 158.529 22.4132C158.781 22.1532 159.081 21.9493 159.431 21.8013C159.78 21.6543 160.16 21.5812 160.572 21.5812V21.5802ZM136.017 21.5802C136.507 21.5802 136.919 21.6663 137.257 21.8363C137.595 22.0072 137.872 22.2303 138.089 22.5063C138.307 22.7812 138.464 23.0923 138.562 23.4373C138.657 23.7822 138.706 24.1342 138.706 24.4912V24.8633H134.282C134.282 25.1042 134.335 25.3232 134.44 25.5212C134.544 25.7192 134.682 25.8883 134.853 26.0273C135.024 26.1672 135.223 26.2773 135.446 26.3542C135.671 26.4312 135.904 26.4702 136.146 26.4702C136.472 26.4702 136.756 26.3942 136.996 26.2432C137.236 26.0912 137.456 25.8932 137.659 25.6432L138.45 26.2493C137.868 27.0023 137.054 27.3792 136.005 27.3792C135.57 27.3792 135.177 27.3042 134.823 27.1572C134.47 27.0092 134.171 26.8073 133.927 26.5473C133.683 26.2873 133.494 25.9792 133.362 25.6273C133.232 25.2733 133.165 24.8913 133.165 24.4792C133.165 24.0693 133.236 23.6863 133.38 23.3323C133.524 22.9792 133.722 22.6723 133.974 22.4132C134.226 22.1532 134.526 21.9493 134.876 21.8013C135.226 21.6543 135.606 21.5812 136.017 21.5812V21.5802ZM103.441 18.9963C104.023 18.9963 104.534 19.0623 104.972 19.1943C105.412 19.3263 105.79 19.5023 106.113 19.7243C106.435 19.9443 106.703 20.1992 106.916 20.4862C107.13 20.7743 107.298 21.0683 107.423 21.3713C107.547 21.6733 107.636 21.9762 107.691 22.2792C107.745 22.5822 107.773 22.8612 107.773 23.1173C107.773 23.6453 107.675 24.1553 107.483 24.6493C107.287 25.1413 106.999 25.5793 106.62 25.9643C106.24 26.3483 105.768 26.6572 105.204 26.8902C104.642 27.1232 103.992 27.2393 103.255 27.2393H100.566V18.9963H103.441ZM153.668 18.2973C153.785 18.2973 153.907 18.3013 154.035 18.3083C154.163 18.3162 154.301 18.3393 154.448 18.3783L154.332 19.3102C154.23 19.2712 154.135 19.2443 154.041 19.2283C153.947 19.2122 153.846 19.2052 153.738 19.2052C153.544 19.2052 153.388 19.2353 153.272 19.2922C153.156 19.3522 153.064 19.4342 152.999 19.5432C152.932 19.6512 152.889 19.7812 152.871 19.9333C152.851 20.0842 152.841 20.2572 152.841 20.4513V21.7213H154.088V22.6283H152.83V27.2383H151.782V22.6283H150.595V21.7202H151.782V20.4862C151.782 19.7493 151.924 19.2003 152.207 18.8393C152.49 18.4792 152.977 18.2992 153.667 18.2992L153.668 18.2973ZM156.381 21.7202V27.2393H155.332V21.7202H156.381ZM149.709 21.7202V27.2393H148.662V21.7202H149.709ZM142.689 21.5802C142.859 21.5802 143.015 21.6032 143.154 21.6502L143.108 22.7803C143.023 22.7563 142.938 22.7372 142.852 22.7202C142.767 22.7062 142.682 22.6982 142.595 22.6982C142.083 22.6982 141.691 22.8423 141.419 23.1283C141.149 23.4163 141.012 23.8622 141.012 24.4683V27.2383H139.964V21.7202H141.012V22.5702H141.035C141.105 22.4233 141.198 22.2882 141.315 22.1682C141.431 22.0482 141.562 21.9452 141.705 21.8603C141.849 21.7743 142.005 21.7062 142.177 21.6562C142.347 21.6052 142.518 21.5802 142.689 21.5802ZM167.185 22.5583C166.905 22.5583 166.653 22.6082 166.427 22.7043C166.203 22.8013 166.012 22.9342 165.857 23.0993C165.702 23.2663 165.581 23.4692 165.496 23.7052C165.411 23.9422 165.369 24.2003 165.369 24.4792C165.369 24.7593 165.411 25.0173 165.496 25.2542C165.581 25.4902 165.702 25.6922 165.857 25.8582C166.012 26.0252 166.203 26.1582 166.427 26.2542C166.653 26.3522 166.905 26.4002 167.185 26.4002C167.464 26.4002 167.716 26.3522 167.941 26.2542C168.165 26.1582 168.357 26.0252 168.511 25.8582C168.667 25.6922 168.787 25.4902 168.872 25.2542C168.958 25.0173 169 24.7582 169 24.4792C169 24.2003 168.958 23.9422 168.872 23.7052C168.787 23.4683 168.667 23.2663 168.511 23.0993C168.357 22.9333 168.165 22.8013 167.941 22.7043C167.716 22.6073 167.464 22.5583 167.185 22.5583ZM103.36 20.0443H101.683V26.1912H103.093C103.566 26.1912 104.013 26.1273 104.437 25.9993C104.86 25.8713 105.23 25.6793 105.548 25.4223C105.868 25.1673 106.119 24.8463 106.306 24.4622C106.492 24.0782 106.586 23.6292 106.586 23.1173C106.586 22.8542 106.542 22.5452 106.456 22.1922C106.37 21.8382 106.21 21.5022 105.974 21.1852C105.737 20.8652 105.41 20.5972 104.99 20.3752C104.571 20.1542 104.027 20.0443 103.36 20.0443ZM160.548 22.4182C160.292 22.4182 160.057 22.4683 159.843 22.5643C159.63 22.6613 159.45 22.7872 159.302 22.9422C159.155 23.0982 159.04 23.2703 158.958 23.4622C158.877 23.6502 158.837 23.8382 158.837 24.0252H162.144C162.136 23.7922 162.099 23.5793 162.033 23.3853C161.966 23.1912 161.868 23.0222 161.736 22.8783C161.604 22.7343 161.439 22.6222 161.242 22.5413C161.042 22.4592 160.812 22.4182 160.548 22.4182ZM135.993 22.4182C135.737 22.4182 135.503 22.4683 135.289 22.5643C135.075 22.6613 134.896 22.7872 134.749 22.9422C134.601 23.0982 134.485 23.2703 134.404 23.4622C134.324 23.6502 134.282 23.8382 134.282 24.0252H137.589C137.581 23.7922 137.544 23.5793 137.479 23.3853C137.412 23.1912 137.314 23.0222 137.181 22.8783C137.051 22.7343 136.884 22.6222 136.687 22.5413C136.488 22.4592 136.257 22.4182 135.993 22.4182ZM149.185 18.9722C149.395 18.9722 149.576 19.0483 149.726 19.1992C149.878 19.3512 149.954 19.5312 149.954 19.7402C149.954 19.9502 149.878 20.1313 149.726 20.2822C149.576 20.4332 149.395 20.5093 149.185 20.5093C148.976 20.5093 148.795 20.4332 148.644 20.2822C148.493 20.1313 148.417 19.9502 148.417 19.7402C148.417 19.5312 148.493 19.3512 148.644 19.1992C148.795 19.0483 148.976 18.9722 149.185 18.9722ZM155.856 18.9722C156.066 18.9722 156.246 19.0483 156.398 19.1992C156.548 19.3512 156.624 19.5312 156.624 19.7402C156.624 19.9502 156.548 20.1313 156.398 20.2822C156.246 20.4332 156.066 20.5093 155.856 20.5093C155.646 20.5093 155.466 20.4332 155.315 20.2822C155.164 20.1313 155.087 19.9502 155.087 19.7402C155.087 19.5312 155.164 19.3512 155.315 19.1992C155.466 19.0483 155.646 18.9722 155.856 18.9722ZM69.667 6.45025C66.405 6.44225 64.298 8.40225 64.275 11.4692C64.25 14.5292 66.374 16.5562 69.608 16.5642C72.9 16.5712 74.976 14.6283 74.983 11.5323C74.99 8.43925 72.918 6.45925 69.667 6.45025Z" fill="#AAAAAA"/>
</svg>
