<svg width="57" height="36" viewBox="0 0 57 36" fill="none" xmlns="http://www.w3.org/2000/svg">
<path fill-rule="evenodd" clip-rule="evenodd" d="M21.062 31.9722H36.3654V4.63315H21.062V31.9722Z" fill="#EA5C0F"/>
<path fill-rule="evenodd" clip-rule="evenodd" d="M22.0334 18.303C22.0334 12.7567 24.645 7.81764 28.7133 4.63399C25.7384 2.30582 21.9842 0.916668 17.9045 0.916668C8.24584 0.916668 0.416061 8.70078 0.416061 18.303C0.416061 27.9055 8.24584 35.6901 17.9045 35.6901C21.9842 35.6901 25.7384 34.301 28.7133 31.9722C24.645 28.7883 22.0334 23.8493 22.0334 18.303Z" fill="#DD0C17"/>
<path fill-rule="evenodd" clip-rule="evenodd" d="M57.0109 18.303C57.0109 27.9055 49.1811 35.6901 39.5219 35.6901C35.4419 35.6901 31.6888 34.301 28.7137 31.9722C32.7811 28.7883 35.3939 23.8493 35.3939 18.303C35.3939 12.7567 32.7811 7.81764 28.7137 4.63399C31.6888 2.30582 35.4419 0.916668 39.5219 0.916668C49.1811 0.916668 57.0109 8.70078 57.0109 18.303Z" fill="#F79E1B"/>
<path fill-rule="evenodd" clip-rule="evenodd" d="M56.4647 29.2353V28.402H56.2876L56.0837 28.9751L55.8796 28.402H55.7025V29.2353H55.8275V28.6066L56.0185 29.1486H56.1484L56.3397 28.6056V29.2353H56.4647ZM55.3425 29.2353V28.544H55.5693V28.4037H54.9912V28.544H55.218V29.2353H55.3425Z" fill="#F69F00"/>
</svg>
