<svg width="192" height="70" viewBox="0 0 192 70" fill="none" xmlns="http://www.w3.org/2000/svg">
<path fill-rule="evenodd" clip-rule="evenodd" d="M61.174 69.916H130.824V0.0839844H61.174V69.916Z" fill="#222222"/>
<path fill-rule="evenodd" clip-rule="evenodd" d="M96 4.0271C78.941 4.0271 65.105 17.9001 65.105 35.0101C65.105 52.1021 78.941 65.9761 95.998 65.9761C113.054 65.9761 126.891 52.1021 126.891 35.0101C126.892 17.9001 113.055 4.0271 95.999 4.0271" fill="white"/>
<path fill-rule="evenodd" clip-rule="evenodd" d="M94.079 35.869L88.63 30.407L82.339 36.719V38.839L83.923 37.243L88.31 41.652L86.692 43.276L87.745 44.342L96.521 35.523V33.414L94.079 35.869ZM68.617 29.253H78.332V31.355H76.712V38.15L82.339 35.01V40.766H68.617V38.655H70.246V31.355H68.617V29.253ZM109.579 29.253V31.355H111.206V38.655H109.579V40.766H123.309V35.01L117.672 38.15V31.355H119.301V29.253H109.579ZM87.824 22.708C89.734 22.708 91.284 24.252 91.284 26.166C91.284 28.082 89.734 29.636 87.824 29.636C85.914 29.636 84.365 28.082 84.365 26.166C84.365 24.251 85.915 22.708 87.825 22.708" fill="#222222"/>
<path fill-rule="evenodd" clip-rule="evenodd" d="M104.164 29.2532H94.902V31.3552H96.522V38.6552H94.902V40.7652H104.164C111.012 40.7652 111.082 29.2532 104.164 29.2532Z" fill="#222222"/>
<path fill-rule="evenodd" clip-rule="evenodd" d="M102.863 37.1731H102.403V32.8281H102.793C104.819 32.8281 104.819 37.1831 102.863 37.1731Z" fill="white"/>
</svg>
