<svg width="192" height="70" viewBox="0 0 192 70" fill="none" xmlns="http://www.w3.org/2000/svg">
<path fill-rule="evenodd" clip-rule="evenodd" d="M49.237 45.7149V16.7669H66.226V20.3959H52.755V29.2959H64.853V32.9259H52.755V41.9989H67.17V45.6279H49.237V45.7149ZM85.017 45.7149L79.182 38.0249L73.347 45.7149H69.23L77.209 35.4319L68.8 24.8029H73.434L79.182 32.7539L85.017 24.8029H89.564L81.585 35.4319L89.136 45.7149H85.017ZM94.799 42.6039V56.8619H91.281V35.5179C91.281 30.0739 95.399 24.2849 101.835 24.2849C108.355 24.2849 113.246 28.4329 113.246 35.2589C113.246 41.9129 108.27 46.4929 102.607 46.4929C99.861 46.4929 96.172 45.2829 94.799 42.6039ZM109.557 35.2589C109.557 30.5929 106.554 27.8289 101.234 28.0869C98.66 28.1739 94.714 30.0739 95.056 36.7289C95.142 38.8889 97.373 42.9489 102.264 42.9489C106.468 42.9489 109.557 40.5299 109.557 35.2589ZM116.25 45.7149V24.8029H119.768V27.0499C121.484 25.0619 124.143 24.3709 126.975 24.3709V28.1739C126.546 28.0869 122.341 27.5679 119.768 33.0989V45.8019H116.25V45.7149ZM127.919 35.2599C127.919 29.2099 132.209 24.2849 138.129 24.2849C145.509 24.2849 148.254 29.2109 148.254 35.5179V37.2469H131.78C132.037 41.2219 135.555 43.2949 138.816 43.2089C141.218 43.1229 142.849 42.4319 144.566 40.7039L146.882 43.1239C144.737 45.1969 141.991 46.5789 138.645 46.5789C132.381 46.4929 127.919 41.8259 127.919 35.2589V35.2599ZM137.872 27.8289C134.526 27.8289 131.952 30.7649 131.78 33.9639H144.565C144.565 30.8519 142.335 27.8279 137.872 27.8279V27.8289ZM150.057 42.7769L152.63 40.4439C152.545 40.4439 153.918 41.8269 154.09 41.9129C154.69 42.4319 155.29 42.7769 156.063 42.9499C158.293 43.5549 162.326 43.3819 162.67 40.2709C162.841 38.5429 161.554 37.5919 160.096 36.9869C158.208 36.2969 156.148 36.0369 154.261 35.1729C152.115 34.2229 150.744 32.5809 150.744 30.1619C150.744 23.8519 159.666 22.8159 163.699 25.7539C163.871 25.9269 165.844 27.7409 165.759 27.7409L163.184 29.8159C161.898 28.2599 160.696 27.4819 157.951 27.4819C156.578 27.4819 154.69 28.0869 154.347 29.5559C153.832 31.6299 156.148 32.4079 157.693 32.8399C159.753 33.3579 161.983 33.7039 163.785 34.8269C166.274 36.3829 166.875 39.7519 165.93 42.3449C164.9 45.1969 161.811 46.3199 159.066 46.4049C155.806 46.5789 152.974 45.5419 150.657 43.2099C150.485 43.2099 150.057 42.7769 150.057 42.7769ZM168.161 42.7769L170.736 40.4439C170.65 40.4439 172.022 41.8269 172.194 41.9129C172.794 42.4319 173.396 42.7769 174.167 42.9499C176.397 43.5549 180.432 43.3819 180.775 40.2709C180.945 38.5429 179.659 37.5919 178.2 36.9869C176.312 36.2969 174.253 36.0369 172.366 35.1729C170.221 34.2229 168.848 32.5809 168.848 30.1619C168.848 23.8519 177.772 22.8159 181.804 25.7539C181.976 25.9269 183.949 27.7409 183.864 27.7409L181.29 29.8159C180.002 28.2599 178.8 27.4819 176.055 27.4819C174.682 27.4819 172.795 28.0869 172.451 29.5559C171.937 31.6299 174.253 32.4079 175.797 32.8399C177.857 33.3579 180.089 33.7039 181.89 34.8269C184.378 36.3829 184.98 39.7519 184.035 42.3449C183.005 45.1969 179.917 46.3199 177.17 46.4049C173.91 46.5789 171.079 45.5419 168.762 43.2099C168.59 43.2099 168.162 42.7769 168.162 42.7769H168.161ZM184.893 24.8029V22.5559H184.121V22.1239H186.18V22.5559H185.408V24.8029H184.893ZM188.754 24.8029V22.7299L187.982 24.8029H187.81L187.038 22.7299V24.8029H186.609V22.1239H187.296L187.982 23.9399L188.669 22.1239H189.355V24.8029H188.754ZM25.383 45.7149L22.809 38.8019H8.90899L6.33399 45.7149H2.64499L13.8 16.7669H17.832L28.902 45.7149H25.383ZM15.687 20.9149L10.454 35.2599H21.35L15.687 20.9149ZM31.218 45.7149H34.822V16.7679H31.218V45.7149ZM40.227 45.7149H43.831V25.2359H40.227V45.7149ZM47.263 18.5819V18.2359C44.518 18.1499 42.286 15.9029 42.201 13.1379H41.686C41.6 15.9029 39.369 18.1499 36.624 18.2359V18.5819C39.369 18.6679 41.6 20.9149 41.686 23.6799H42.201C42.286 20.9149 44.518 18.6679 47.263 18.5819Z" fill="#222222"/>
</svg>
