<svg width="193" height="70" viewBox="0 0 193 70" fill="none" xmlns="http://www.w3.org/2000/svg">
<path fill-rule="evenodd" clip-rule="evenodd" d="M96.1159 49.316C102.318 49.316 106.45 45.307 106.45 38.542V21.235H99.6659V38.27C99.6659 41.42 98.5309 42.98 96.1519 42.98C93.8559 42.98 92.8729 41.383 92.8729 38.27V21.235H86.0529V38.542C86.0619 45.457 89.8379 49.316 96.1139 49.316H96.1159ZM116.521 33.991H115.275V27.421H117.065C120.072 27.421 121.515 28.356 121.515 30.646C121.505 33.132 119.875 33.991 116.521 33.991ZM124.625 22.749C122.751 21.431 120.531 21.235 117.608 21.235H108.408V48.886H115.19V39.981H117.14C120.025 39.981 122.208 39.784 123.97 38.738C126.733 37.066 128.373 34.113 128.373 30.533C128.373 27.066 127.09 24.459 124.625 22.749ZM165.886 33.486L176.22 48.887H182.179V21.235H175.406V36.598L165.221 21.235H159.103V48.887H165.886V33.486ZM70.0699 42.55C66.2469 42.55 62.7799 39.205 62.7799 34.85C62.7799 30.804 66.0129 27.581 70.1539 27.581C74.0519 27.581 77.2939 30.804 77.2939 34.851C77.2839 39.355 74.0519 42.551 70.0699 42.551V42.55ZM80.0099 24.814C77.3209 22.17 73.8169 20.731 70.1069 20.731C66.1719 20.731 62.7339 22.095 60.0069 24.777C57.2809 27.458 55.7909 30.963 55.7909 34.775C55.7909 38.859 57.1219 42.279 59.7269 45.046C62.4519 47.924 65.9659 49.4 70.0599 49.4C73.9199 49.4 77.5839 47.887 80.2719 45.084C82.8869 42.401 84.2919 38.859 84.2919 34.898C84.3019 31.112 82.8209 27.571 80.0099 24.814ZM143.541 42.55C139.719 42.55 136.252 39.205 136.252 34.85C136.252 30.804 139.494 27.581 143.625 27.581C147.523 27.581 150.765 30.804 150.765 34.851C150.755 39.355 147.514 42.551 143.541 42.551V42.55ZM153.481 24.814C150.793 22.17 147.279 20.731 143.579 20.731C139.634 20.731 136.206 22.095 133.479 24.777C130.752 27.458 129.263 30.963 129.263 34.775C129.263 38.859 130.593 42.279 133.197 45.046C135.934 47.924 139.437 49.4 143.532 49.4C147.392 49.4 151.055 47.887 153.744 45.084C156.358 42.401 157.764 38.859 157.764 34.898C157.774 31.112 156.292 27.571 153.482 24.814H153.481ZM8.58094 45.036C11.3069 47.914 14.7839 49.429 18.8779 49.429C23.5989 49.429 28.0409 47.092 30.6919 43.242C32.2939 40.905 33.0719 38.261 33.0719 35.15C33.0719 34.57 33.0339 33.944 32.9969 33.317H17.2009V38.84H25.1179C23.7489 41.252 21.4539 42.578 18.8779 42.578C15.0549 42.578 11.6259 39.196 11.6259 34.794C11.6259 30.823 14.8209 27.524 18.8779 27.524C21.0609 27.524 22.8499 28.422 24.5739 30.207H32.2939C30.0739 24.291 24.8839 20.674 18.9619 20.674C15.0269 20.674 11.5969 22.076 8.86194 24.758C6.13594 27.441 4.65594 30.945 4.65594 34.757C4.64594 38.85 5.96694 42.27 8.58094 45.037V45.036ZM42.8909 33.991H41.5689V27.421H43.4429C46.4409 27.421 47.8839 28.356 47.8839 30.646C47.8839 33.132 46.2439 33.991 42.8909 33.991ZM48.4649 39.392C52.3999 38.299 54.7429 34.962 54.7429 30.487C54.7429 27.067 53.4579 24.459 50.9949 22.749C49.1209 21.431 46.9009 21.235 43.9769 21.235H34.7769V48.886H41.5599V39.981L46.8629 48.886H55.2479L48.4649 39.392ZM184.99 21.375C185.346 21.021 185.767 20.843 186.264 20.843C186.76 20.843 187.191 21.021 187.538 21.375C187.885 21.722 188.063 22.151 188.063 22.645C188.063 23.142 187.885 23.572 187.538 23.927C187.191 24.281 186.77 24.459 186.264 24.459C185.767 24.459 185.336 24.281 184.99 23.927C184.642 23.572 184.465 23.151 184.465 22.646C184.465 22.151 184.634 21.731 184.99 21.376V21.375ZM186.254 24.74C186.836 24.74 187.332 24.534 187.734 24.123C188.147 23.712 188.344 23.216 188.344 22.646C188.344 22.066 188.138 21.581 187.734 21.178C187.332 20.777 186.836 20.572 186.254 20.572C185.683 20.572 185.186 20.777 184.784 21.178C184.371 21.591 184.174 22.076 184.174 22.646C184.174 23.225 184.381 23.721 184.784 24.123C185.186 24.533 185.674 24.74 186.254 24.74Z" fill="#222222"/>
<path fill-rule="evenodd" clip-rule="evenodd" d="M186.573 22.5431C186.489 22.5811 186.357 22.5911 186.189 22.5911H185.824V21.7591H186.17C186.395 21.7591 186.555 21.7871 186.657 21.8431C186.76 21.8991 186.807 22.0111 186.807 22.1791C186.807 22.3661 186.723 22.4891 186.573 22.5431ZM187.182 23.7491C187.173 23.7291 187.163 23.6921 187.163 23.6281C187.163 23.5721 187.153 23.5071 187.153 23.4601V23.2901C187.153 23.1801 187.117 23.0581 187.032 22.9351C186.948 22.8151 186.817 22.7401 186.639 22.7111C186.779 22.6931 186.892 22.6551 186.967 22.5991C187.117 22.5061 187.192 22.3471 187.192 22.1511C187.192 21.8611 187.07 21.6651 186.835 21.5721C186.704 21.5151 186.499 21.4871 186.207 21.4871H185.402V23.7771H185.805V22.8801H186.123C186.339 22.8801 186.489 22.9081 186.573 22.9551C186.723 23.0391 186.789 23.2171 186.789 23.4781V23.6561L186.798 23.7301V23.7591C186.798 23.7681 186.798 23.7771 186.808 23.7771H187.182V23.7491Z" fill="#222222"/>
</svg>
