<svg width="193" height="70" viewBox="0 0 193 70" fill="none" xmlns="http://www.w3.org/2000/svg">
<path fill-rule="evenodd" clip-rule="evenodd" d="M68.344 30.2381H56.493C56.097 30.2381 55.798 29.9361 55.798 29.5371V28.0781C55.79 27.7231 55.903 27.5621 56.121 27.2901L65.554 16.2351H56.31C55.916 16.2351 55.617 15.9321 55.616 15.5351V14.5021C55.617 14.1021 55.916 13.8031 56.31 13.8011H68.282C68.678 13.8031 68.977 14.1021 68.977 14.5021V15.9901C68.983 16.2581 68.892 16.4861 68.678 16.7271L59.221 27.8031H68.343C68.739 27.8041 69.037 28.1061 69.038 28.5041V29.5371C69.038 29.9361 68.738 30.2381 68.343 30.2381H68.344ZM91.705 30.5421H91.708C92.556 30.5251 93.183 30.3551 93.429 30.0781C93.516 29.9781 93.559 29.8651 93.547 29.7541C93.541 29.6611 93.541 29.6611 93.308 28.5611L93.303 28.5341C93.25 28.2471 93.049 28.1161 92.88 28.1161L92.858 28.1171C92.858 28.1171 92.644 28.1071 92.434 28.1071H92.431C91.826 28.0891 91.326 27.9991 91.315 27.1071V8.43612C91.315 8.12512 91.129 7.80812 90.771 7.79812L90.666 7.79912L89.011 8.22512C88.729 8.25512 88.436 8.45712 88.448 8.83212V27.1681C88.451 29.3411 89.608 30.5381 91.705 30.5431V30.5421ZM125.159 30.2381H123.68C123.285 30.2381 122.986 29.9361 122.984 29.5371V18.2981C122.959 16.3981 122.396 15.8681 120.364 15.8381C118.064 15.8381 115.74 16.4201 114.974 16.6311V29.5371C114.972 29.9431 114.694 30.2381 114.309 30.2381H112.801C112.406 30.2381 112.108 29.9361 112.107 29.5371V16.9321C112.085 15.7651 112.194 14.9581 113.84 14.4221C115.417 13.8721 118.433 13.4071 120.427 13.4061C124.223 13.4111 125.847 14.7931 125.851 18.0241V29.5371C125.851 29.9361 125.551 30.2381 125.158 30.2381H125.159ZM139.998 16.3001C139.448 16.1591 137.908 15.8101 136.174 15.8101C132.992 15.8391 131.656 16.7101 131.624 22.0351C131.66 27.8821 133.386 28.1981 136.204 28.2281V28.3521V28.2281C137.957 28.2281 139.462 27.8601 139.996 27.7121L139.998 16.3001ZM140.774 30.0191L140.599 30.0641C139.659 30.3041 138.372 30.6331 136.114 30.6331H136.111C129.894 30.6241 128.672 27.4611 128.666 22.0041C128.675 15.7441 130.643 13.4141 135.928 13.4061C137.794 13.4061 139.08 13.6491 140.002 13.8741L139.996 8.83312C139.989 8.61012 140.088 8.32112 140.606 8.22112L142.258 7.79712H142.348C142.729 7.80712 142.862 8.14712 142.863 8.43512V27.3821C142.888 28.5761 142.748 29.6021 140.774 30.0191ZM152.829 28.1991C148.756 28.1811 148.552 26.0731 148.523 22.0351C148.552 17.9761 148.755 15.8581 152.829 15.8391C156.905 15.8591 157.109 17.9761 157.137 22.0321C157.108 26.0721 156.905 28.1811 152.829 28.1981V28.1991ZM152.829 13.4061C146.112 13.4161 145.542 17.8631 145.536 22.0351C145.542 26.1891 146.112 30.6251 152.829 30.6331H152.831C159.542 30.6241 160.115 26.2031 160.125 22.0351C160.117 17.6741 159.548 13.4151 152.829 13.4051V13.4061ZM106.269 22.1221C105.595 22.1301 102.332 22.1821 101.03 22.4631L100.93 22.4861C99.47 22.8151 98.315 23.0731 98.302 25.2541C98.305 27.9961 100.387 28.2421 102.519 28.2601L102.521 28.3831V28.2601C103.857 28.2601 105.116 28.0681 106.268 27.6931V22.1221H106.269ZM109.15 18.1161V26.8331C109.18 29.0031 108.626 29.6931 106.462 30.2001C105.513 30.3981 104.061 30.6311 102.488 30.6331C100.168 30.6271 95.346 30.6181 95.344 25.3751C95.328 21.2461 97.79 20.5281 100.763 20.0681C102.712 19.7531 104.693 19.7061 105.7 19.7061C105.972 19.7061 106.15 19.7081 106.253 19.7111V18.2371C106.243 17.2531 106.239 16.6571 105.324 16.3091C104.764 16.0711 103.923 15.9601 102.676 15.9601C100.619 15.9601 98.776 16.4261 97.558 16.7341L97.092 16.8441C97.042 16.8571 96.988 16.8691 96.918 16.8741C96.702 16.8741 96.468 16.7441 96.381 16.4591L96.374 16.4331L96.098 15.0291V14.9581C96.102 14.6261 96.338 14.4321 96.56 14.3621C97.544 13.9921 100.142 13.4071 102.94 13.4061C104.986 13.4071 106.462 13.6751 107.456 14.2251C109.156 15.1311 109.153 16.7861 109.15 18.1151V18.1161ZM82.154 27.6931C81.002 28.0681 79.742 28.2601 78.406 28.2601V28.3831L78.405 28.2601C76.273 28.2421 74.191 27.9961 74.188 25.2541C74.202 23.0741 75.356 22.8141 76.817 22.4861L76.919 22.4631C78.218 22.1821 81.481 22.1301 82.154 22.1221V27.6931ZM83.341 14.2251C82.348 13.6751 80.872 13.4071 78.827 13.4051C76.029 13.4071 73.431 13.9921 72.448 14.3621C72.225 14.4321 71.988 14.6261 71.984 14.9581L71.985 15.0291L72.26 16.4331L72.267 16.4591C72.353 16.7451 72.59 16.8731 72.804 16.8731H72.805C72.874 16.8691 72.929 16.8571 72.979 16.8451L73.444 16.7351C74.664 16.4251 76.504 15.9601 78.562 15.9601C79.81 15.9601 80.649 16.0711 81.212 16.3101C82.125 16.6581 82.129 17.2531 82.141 18.2371V19.7111C82.034 19.7081 81.859 19.7061 81.588 19.7061C80.58 19.7061 78.598 19.7531 76.65 20.0681C73.676 20.5281 71.216 21.2461 71.23 25.3751C71.233 30.6181 76.056 30.6271 78.374 30.6331C79.948 30.6311 81.4 30.3981 82.348 30.2001C84.512 29.6931 85.064 29.0021 85.035 26.8331V18.1161C85.038 16.7861 85.043 15.1311 83.341 14.2251Z" fill="#222222"/>
<path fill-rule="evenodd" clip-rule="evenodd" d="M144.503 48.9712C144.473 47.8412 144.41 46.7452 144.131 45.6472C143.632 43.7022 142.481 43.1082 140.149 43.1082C137.756 43.1082 136.636 43.7362 136.138 45.6482C135.858 46.7142 135.827 47.8722 135.797 49.0022L144.503 48.9722V48.9712ZM147.457 49.1902V50.7262C147.457 50.9462 147.241 51.1962 147.022 51.1962H135.827C135.827 52.8582 136.168 53.7972 136.883 54.5812C137.756 55.5862 139.185 55.9312 141.238 55.9312C143.166 55.9312 144.41 55.5212 145.748 55.1452C145.811 55.1152 145.873 55.1152 145.935 55.1152C146.091 55.1152 146.183 55.2092 146.275 55.4282L146.618 56.7132C146.65 56.7452 146.65 56.8082 146.65 56.8392C146.65 57.0272 146.525 57.1542 146.308 57.2162C145.093 57.7162 143.042 58.1562 140.896 58.1562C134.801 58.1562 132.841 55.3972 132.841 49.5352C132.841 44.1112 134.055 40.8822 140.181 40.8822C143.415 40.8822 145.311 41.8552 146.368 43.5472C147.241 44.9902 147.457 46.9332 147.457 49.1902ZM126.898 55.3962C126.898 55.3962 125.156 55.9612 123.012 55.9612C119.995 55.9612 118.347 55.3332 118.347 49.5342C118.347 44.1422 119.747 43.1072 122.98 43.1072C125.065 43.1072 126.898 43.6082 126.898 43.6082V55.3962ZM129.761 58.8202V44.0802C129.761 42.9202 129.668 42.0122 127.739 41.5402C126.619 41.2572 124.97 40.8822 122.763 40.8822C117.165 40.8822 115.363 43.3592 115.363 49.5662C115.363 55.2092 116.668 58.1562 122.671 58.1562C124.91 58.1562 126.002 57.8652 126.998 57.6122L126.888 57.7622V60.1812C126.802 62.0912 125.921 63.5822 122.57 63.5822C120.09 63.5822 118.635 62.8802 117.939 61.2432C117.839 61.0992 117.666 61.0492 117.466 61.1312L115.972 61.7302C115.731 61.8272 115.668 62.0222 115.752 62.2402L115.746 62.2472C116.536 64.6082 118.579 65.8642 122.57 65.8642C128.76 65.8642 129.763 62.6412 129.763 59.3512V58.8212H129.761V58.8202ZM112.281 45.4602V57.2792C112.281 57.5592 112.124 57.7472 111.815 57.7472H109.888C109.577 57.7472 109.389 57.5592 109.389 57.2792V45.8032C109.389 43.7982 108.645 43.1082 106.624 43.1082C103.979 43.1082 101.273 43.8922 101.273 43.8922V57.2802C101.273 57.5602 101.118 57.7482 100.807 57.7482H98.8779C98.5679 57.7482 98.3799 57.5602 98.3799 57.2802V44.1432C98.3799 42.9192 98.5679 42.3872 100.185 41.8552C101.801 41.3222 104.785 40.8822 106.778 40.8822C110.51 40.8822 112.282 42.0122 112.282 45.4602H112.281ZM94.8079 40.8802H94.6849L92.6919 41.3522C92.4139 41.3822 92.2589 41.5082 92.2589 41.8222L92.2889 51.9482C92.2889 54.1412 91.9159 55.9612 88.2139 55.9612C85.1039 55.9612 84.1399 54.7362 84.1399 52.0112V41.3232C84.1399 41.1032 84.0489 40.8832 83.7999 40.8832H83.7059L81.6839 41.3232C81.4339 41.3852 81.2479 41.5102 81.2479 41.7932V51.7622C81.2479 55.9632 82.8329 58.1582 88.2139 58.1582C94.4039 58.1582 95.1489 55.0222 95.1489 51.7302V41.3222C95.1489 41.0712 95.0549 40.8822 94.8079 40.8822V40.8802ZM75.4379 49.5342C75.4379 45.5842 75.2519 43.1072 71.0229 43.1072C66.8239 43.1072 66.6379 45.5842 66.6379 49.5342C66.6379 53.4532 66.8239 55.9302 71.0229 55.9302C75.2519 55.9302 75.4379 53.4532 75.4379 49.5342ZM78.4249 49.5342C78.4249 54.2662 77.6469 58.1562 71.0229 58.1562C64.4299 58.1562 63.6219 54.2662 63.6219 49.5342C63.6219 44.7682 64.4299 40.8812 71.0219 40.8812C77.6469 40.8812 78.4249 44.7682 78.4249 49.5342ZM61.8659 55.6472C61.8359 55.6472 61.8039 55.6782 61.7439 55.6782C61.5559 55.7112 61.0889 55.8042 60.6539 55.8042C60.0319 55.8042 59.2849 55.6162 59.2849 54.4862V35.7202C59.2849 35.4702 59.1929 35.2832 58.9439 35.2832H58.8499L56.8289 35.7512C56.5489 35.7852 56.3939 35.9112 56.3939 36.1912V54.6132C56.3939 56.9652 57.6989 58.0622 59.7819 58.0622C61.0279 58.0622 61.8989 57.7802 62.1469 57.6552C62.2089 57.6552 62.3949 57.5602 62.3949 57.3102V57.2162L62.1149 55.9312C62.0849 55.7112 61.9899 55.6472 61.8659 55.6472Z" fill="#222222"/>
<path fill-rule="evenodd" clip-rule="evenodd" d="M47.324 19.0502L47.321 19.0512L47.129 18.8382C44.335 15.7492 38.539 12.0132 31.979 12.0132C29.924 12.0132 28.864 17.6502 28.956 22.8772L28.95 22.8762C29.06 27.4942 30.09 31.9202 32.135 31.9202C39.975 31.9202 48.905 24.5962 48.905 21.9712C48.905 21.3142 48.228 20.0472 47.325 19.0502" fill="#222222"/>
</svg>
